<?xml version="1.0" encoding="utf-8"?>
<!-- Generator: Adobe Illustrator 19.0.0, SVG Export Plug-In . SVG Version: 6.00 Build 0)  -->
<svg version="1.1" id="Layer_1" xmlns="http://www.w3.org/2000/svg" xmlns:xlink="http://www.w3.org/1999/xlink" x="0px" y="0px"
	 width="21.9px" height="21.9px" viewBox="0 0 21.9 21.9" style="enable-background:new 0 0 21.9 21.9;" xml:space="preserve">
<style type="text/css">
	.st0{clip-path:url(#SVGID_2_);fill:none;stroke:#FFFFFF;stroke-linecap:round;stroke-linejoin:round;}
</style>
<g>
	<defs>
		<rect id="SVGID_1_" y="0" width="21.9" height="21.9"/>
	</defs>
	<clipPath id="SVGID_2_">
		<use xlink:href="#SVGID_1_"  style="overflow:visible;"/>
	</clipPath>
	<path class="st0" d="M13.4,4.5c1,0.2,1.9,0.7,2.6,1.4c0.7,0.7,1.2,1.6,1.4,2.6 M13.4,0.5c2,0.2,3.9,1.1,5.4,2.6
		c1.4,1.4,2.4,3.3,2.6,5.4 M20.4,16.4v3c0,0.3-0.1,0.6-0.2,0.8c-0.1,0.3-0.3,0.5-0.5,0.7c-0.2,0.2-0.4,0.3-0.7,0.4s-0.5,0.1-0.8,0.1
		c-3.1-0.3-6-1.4-8.6-3.1c-2.4-1.5-4.5-3.6-6-6C1.9,9.7,0.8,6.8,0.5,3.7c0-0.3,0-0.6,0.1-0.8C0.7,2.6,0.8,2.4,1,2.2
		c0.2-0.2,0.4-0.4,0.7-0.5c0.3-0.1,0.5-0.2,0.8-0.2h3c0.5,0,1,0.2,1.3,0.5c0.4,0.3,0.6,0.8,0.7,1.2c0.1,1,0.4,1.9,0.7,2.8
		c0.1,0.4,0.2,0.7,0.1,1.1C8.2,7.5,8,7.9,7.7,8.1L6.5,9.4c1.4,2.5,3.5,4.6,6,6l1.3-1.3c0.3-0.3,0.6-0.5,1-0.5
		c0.4-0.1,0.8-0.1,1.1,0.1c0.9,0.3,1.9,0.6,2.8,0.7c0.5,0.1,0.9,0.3,1.2,0.7C20.2,15.5,20.4,15.9,20.4,16.4z"/>
</g>
</svg>
