<svg width="95" height="95" viewBox="0 0 95 95" fill="none" xmlns="http://www.w3.org/2000/svg">
<path d="M91.5673 0.874176C90.9736 0.0392173 89.8232 -0.164884 88.9883 0.41031C88.1533 1.00406 87.9492 2.15445 88.5244 2.98941C89.1181 3.82436 90.2685 4.02847 91.1034 3.45327C91.9569 2.85952 92.161 1.70914 91.5673 0.874176Z" fill="url(#paint0_linear_11_73)"/>
<path d="M91.122 59.8224C90.287 59.2287 89.1181 59.4328 88.543 60.2863C87.9492 61.1213 88.1533 62.2902 89.0068 62.8654C89.8417 63.4592 91.0107 63.2551 91.5858 62.4015C92.161 61.5666 91.9569 60.4162 91.122 59.8224Z" fill="url(#paint1_linear_11_73)"/>
<path d="M6.01171 0.410301C5.17675 -0.18345 4.0078 0.0206521 3.43261 0.87417C2.83886 1.70913 3.04296 2.87808 3.89648 3.45328C4.73144 4.04703 5.90038 3.84293 6.47558 2.98941C7.05077 2.15445 6.84667 1.00405 6.01171 0.410301Z" fill="url(#paint2_linear_11_73)"/>
<path d="M6.45702 60.2863C5.86327 59.4513 4.71288 59.2472 3.87793 59.8224C3.04297 60.4162 2.83887 61.5666 3.41406 62.4016C4.00781 63.2366 5.15819 63.4407 5.99315 62.8655C6.84666 62.2717 7.05076 61.1213 6.45702 60.2863Z" fill="url(#paint3_linear_11_73)"/>
<path d="M68.541 8.03628C65.2754 5.10464 61.5274 2.93374 57.3711 1.57924C53.0479 0.150531 48.5205 -0.313336 43.9004 0.206195C37.1836 0.948384 30.7266 3.99135 25.7168 8.75991C20.707 13.5285 17.3672 19.8371 16.3281 26.5168C15.4004 32.4172 16.124 38.3918 18.3877 43.7726C20.5586 48.9123 24.084 53.4211 28.5742 56.7795C29.9473 57.8185 30.7822 59.4514 30.7822 61.177V66.0568V78.1359C30.7822 80.6965 32.4707 82.8674 34.7715 83.591C35.124 86.4485 36.4043 89.1203 38.4824 91.1799C40.9316 93.6291 44.1973 94.9836 47.667 94.9836C54.3467 94.9836 59.8574 89.9182 60.5811 83.4426C62.6963 82.5891 64.1807 80.5109 64.1807 78.1359V66.0568V61.177C64.1807 59.4514 64.9971 57.8185 66.3702 56.7795C70.211 53.9035 73.4024 50.1369 75.5733 45.8879C77.8555 41.4162 79.0245 36.592 79.0245 31.5451C79.043 22.5832 75.2207 14.0294 68.541 8.03628ZM47.6856 91.2912C45.1992 91.2912 42.8799 90.3264 41.1172 88.5822C39.8184 87.2834 38.9463 85.6506 38.5937 83.8693H56.7774C55.9053 88.0998 52.1572 91.2912 47.6856 91.2912ZM60.4883 78.1545C60.4883 79.1936 59.6905 80.0656 58.6514 80.1584H58.6328C58.5772 80.1584 58.5215 80.1584 58.4658 80.1584H36.5156C35.4023 80.1584 34.4932 79.2492 34.4932 78.1359V75.8908H60.4698L60.4883 78.1545ZM60.4883 72.1799H34.5117V67.9123H40.0781H54.9219H60.4883V72.1799ZM47.5 40.173C49.4111 40.173 51.3223 39.7277 53.0664 38.8556V64.2014H41.9336V38.8556C43.6777 39.7463 45.5889 40.173 47.5 40.173ZM42.3789 34.7922L47.5 24.55L52.6211 34.7922C49.5781 37.0373 45.4219 37.0373 42.3789 34.7922ZM64.1621 53.8107C61.8614 55.5363 60.4883 58.2824 60.4883 61.177V64.2014H56.7774V35.256C56.7774 35.1818 56.7774 35.1261 56.7588 35.0519C56.7588 35.0334 56.7588 35.0148 56.7588 34.9963C56.7588 34.9406 56.7403 34.9035 56.7403 34.8478C56.7403 34.8293 56.7217 34.8107 56.7217 34.7922C56.7031 34.7365 56.7031 34.6994 56.6846 34.6623C56.6846 34.6437 56.666 34.6252 56.666 34.6066C56.6475 34.551 56.6289 34.5138 56.6104 34.4582C56.6104 34.4396 56.6104 34.4396 56.5918 34.4211L56.5733 34.4025L49.1699 19.5959C48.8545 18.965 48.2051 18.5754 47.5186 18.5754C46.8135 18.5754 46.1826 18.965 45.8672 19.5959L38.4639 34.4025L38.4453 34.4211C38.4453 34.4396 38.4453 34.4396 38.4268 34.4582C38.4082 34.5138 38.3896 34.551 38.3711 34.6066C38.3711 34.6252 38.3525 34.6437 38.3525 34.6623C38.334 34.6994 38.3154 34.7551 38.3154 34.7922C38.3154 34.8107 38.2969 34.8293 38.2969 34.8478C38.2783 34.9035 38.2783 34.9406 38.2783 34.9963C38.2783 35.0148 38.2783 35.0334 38.2783 35.0519C38.2783 35.1261 38.2598 35.1818 38.2598 35.256V64.2014H34.5488V61.177C34.5488 58.2824 33.1758 55.5363 30.8564 53.8107C22.581 47.6135 18.4433 37.3713 20.039 27.092C21.8945 14.9943 32.1182 5.23452 44.3086 3.89858C52.3613 3.00796 60.0801 5.45718 66.0547 10.8195C71.9551 16.089 75.3321 23.6593 75.3321 31.5636C75.3321 40.3771 71.25 48.5041 64.1621 53.8107Z" fill="url(#paint4_linear_11_73)"/>
<path d="M63.5869 13.5656C62.8262 12.8791 61.6573 12.9533 60.9707 13.714C60.2842 14.4748 60.3584 15.6437 61.1192 16.3302C65.4424 20.2082 67.9287 25.756 67.9287 31.5451C67.9287 32.5656 68.7636 33.4005 69.7842 33.4005C70.8047 33.4005 71.6396 32.5656 71.6396 31.5451C71.6211 24.6984 68.6894 18.1486 63.5869 13.5656Z" fill="url(#paint5_linear_11_73)"/>
<path d="M10.3906 29.6896H1.85547C0.834961 29.6896 0 30.5246 0 31.5451C0 32.5656 0.834961 33.4005 1.85547 33.4005H10.3906C11.4111 33.4005 12.2461 32.5656 12.2461 31.5451C12.2461 30.5246 11.4111 29.6896 10.3906 29.6896Z" fill="url(#paint6_linear_11_73)"/>
<path d="M93.1445 29.6896H84.6094C83.5889 29.6896 82.7539 30.5246 82.7539 31.5451C82.7539 32.5656 83.5889 33.4005 84.6094 33.4005H93.1445C94.165 33.4005 95 32.5656 95 31.5451C95 30.5246 94.165 29.6896 93.1445 29.6896Z" fill="url(#paint7_linear_11_73)"/>
<path d="M18.6289 51.7697C18.0351 50.9347 16.8847 50.7306 16.0498 51.3058L9.96387 55.5548C9.12891 56.1485 8.92481 57.2989 9.5 58.1338C9.85254 58.6534 10.4277 58.9317 11.0215 58.9317C11.3926 58.9317 11.7637 58.8203 12.0791 58.5977L18.165 54.3487C19 53.755 19.2041 52.6046 18.6289 51.7697Z" fill="url(#paint8_linear_11_73)"/>
<path d="M85.4999 4.93766C84.9062 4.10269 83.7558 3.89859 82.9208 4.47379L76.835 8.72282C76 9.31657 75.7959 10.467 76.3711 11.3019C76.7236 11.8215 77.2988 12.0998 77.8926 12.0998C78.2637 12.0998 78.6347 11.9885 78.9502 11.7658L85.0361 7.51676C85.8896 6.94157 86.0937 5.77262 85.4999 4.93766Z" fill="url(#paint9_linear_11_73)"/>
<path d="M18.165 8.74137L12.0791 4.49233C11.2441 3.89858 10.0752 4.10268 9.50001 4.9562C8.92482 5.80972 9.11036 6.96011 9.96388 7.53531L16.0498 11.7843C16.3652 12.007 16.7363 12.1183 17.1074 12.1183C17.7012 12.1183 18.2763 11.84 18.6289 11.3205C19.2041 10.4855 19 9.33512 18.165 8.74137Z" fill="url(#paint10_linear_11_73)"/>
<path d="M85.0362 55.5734L78.9502 51.3244C78.1152 50.7306 76.9463 50.9347 76.3711 51.7882C75.7773 52.6232 75.9814 53.7921 76.835 54.3673L82.9209 58.6164C83.2363 58.839 83.6074 58.9504 83.9785 58.9504C84.5723 58.9504 85.1475 58.6721 85.5 58.1525C86.0938 57.3176 85.8897 56.1486 85.0362 55.5734Z" fill="url(#paint11_linear_11_73)"/>
<defs>
<linearGradient id="paint0_linear_11_73" x1="88.1981" y1="2.44917" x2="91.9067" y2="2.44917" gradientUnits="userSpaceOnUse">
<stop stop-color="#CC074D"/>
<stop offset="0.275" stop-color="#E6194C"/>
<stop offset="0.405" stop-color="#F3224B"/>
<stop offset="0.625" stop-color="#F64850"/>
<stop offset="1" stop-color="#FA8958"/>
</linearGradient>
<linearGradient id="paint1_linear_11_73" x1="88.2035" y1="61.865" x2="91.9121" y2="61.865" gradientUnits="userSpaceOnUse">
<stop stop-color="#CC074D"/>
<stop offset="0.275" stop-color="#E6194C"/>
<stop offset="0.405" stop-color="#F3224B"/>
<stop offset="0.625" stop-color="#F64850"/>
<stop offset="1" stop-color="#FA8958"/>
</linearGradient>
<linearGradient id="paint2_linear_11_73" x1="3.09314" y1="2.45286" x2="6.80187" y2="2.45286" gradientUnits="userSpaceOnUse">
<stop stop-color="#CC074D"/>
<stop offset="0.275" stop-color="#E6194C"/>
<stop offset="0.405" stop-color="#F3224B"/>
<stop offset="0.625" stop-color="#F64850"/>
<stop offset="1" stop-color="#FA8958"/>
</linearGradient>
<linearGradient id="paint3_linear_11_73" x1="3.08777" y1="61.8613" x2="6.79648" y2="61.8613" gradientUnits="userSpaceOnUse">
<stop stop-color="#CC074D"/>
<stop offset="0.275" stop-color="#E6194C"/>
<stop offset="0.405" stop-color="#F3224B"/>
<stop offset="0.625" stop-color="#F64850"/>
<stop offset="1" stop-color="#FA8958"/>
</linearGradient>
<linearGradient id="paint4_linear_11_73" x1="15.9347" y1="60.7895" x2="79.0245" y2="60.7895" gradientUnits="userSpaceOnUse">
<stop stop-color="#CC074D"/>
<stop offset="0.275" stop-color="#E6194C"/>
<stop offset="0.405" stop-color="#F3224B"/>
<stop offset="0.625" stop-color="#F64850"/>
<stop offset="1" stop-color="#FA8958"/>
</linearGradient>
<linearGradient id="paint5_linear_11_73" x1="60.499" y1="26.0901" x2="71.6396" y2="26.0901" gradientUnits="userSpaceOnUse">
<stop stop-color="#CC074D"/>
<stop offset="0.275" stop-color="#E6194C"/>
<stop offset="0.405" stop-color="#F3224B"/>
<stop offset="0.625" stop-color="#F64850"/>
<stop offset="1" stop-color="#FA8958"/>
</linearGradient>
<linearGradient id="paint6_linear_11_73" x1="2.20437e-07" y1="32.0646" x2="12.2461" y2="32.0646" gradientUnits="userSpaceOnUse">
<stop stop-color="#CC074D"/>
<stop offset="0.275" stop-color="#E6194C"/>
<stop offset="0.405" stop-color="#F3224B"/>
<stop offset="0.625" stop-color="#F64850"/>
<stop offset="1" stop-color="#FA8958"/>
</linearGradient>
<linearGradient id="paint7_linear_11_73" x1="82.7539" y1="32.0646" x2="95" y2="32.0646" gradientUnits="userSpaceOnUse">
<stop stop-color="#CC074D"/>
<stop offset="0.275" stop-color="#E6194C"/>
<stop offset="0.405" stop-color="#F3224B"/>
<stop offset="0.625" stop-color="#F64850"/>
<stop offset="1" stop-color="#FA8958"/>
</linearGradient>
<linearGradient id="paint8_linear_11_73" x1="9.17371" y1="56.0689" x2="18.9552" y2="56.0689" gradientUnits="userSpaceOnUse">
<stop stop-color="#CC074D"/>
<stop offset="0.275" stop-color="#E6194C"/>
<stop offset="0.405" stop-color="#F3224B"/>
<stop offset="0.625" stop-color="#F64850"/>
<stop offset="1" stop-color="#FA8958"/>
</linearGradient>
<linearGradient id="paint9_linear_11_73" x1="76.0448" y1="9.23696" x2="85.8394" y2="9.23696" gradientUnits="userSpaceOnUse">
<stop stop-color="#CC074D"/>
<stop offset="0.275" stop-color="#E6194C"/>
<stop offset="0.405" stop-color="#F3224B"/>
<stop offset="0.625" stop-color="#F64850"/>
<stop offset="1" stop-color="#FA8958"/>
</linearGradient>
<linearGradient id="paint10_linear_11_73" x1="9.16864" y1="9.25076" x2="18.9552" y2="9.25076" gradientUnits="userSpaceOnUse">
<stop stop-color="#CC074D"/>
<stop offset="0.275" stop-color="#E6194C"/>
<stop offset="0.405" stop-color="#F3224B"/>
<stop offset="0.625" stop-color="#F64850"/>
<stop offset="1" stop-color="#FA8958"/>
</linearGradient>
<linearGradient id="paint11_linear_11_73" x1="76.0316" y1="56.0828" x2="85.8395" y2="56.0828" gradientUnits="userSpaceOnUse">
<stop stop-color="#CC074D"/>
<stop offset="0.275" stop-color="#E6194C"/>
<stop offset="0.405" stop-color="#F3224B"/>
<stop offset="0.625" stop-color="#F64850"/>
<stop offset="1" stop-color="#FA8958"/>
</linearGradient>
</defs>
</svg>
