<svg width="96" height="95" viewBox="0 0 96 95" fill="none" xmlns="http://www.w3.org/2000/svg">
<path d="M73.8105 72.4973H64.1621C63.0859 72.4973 62.2324 73.3694 62.2324 74.427C62.2324 75.4847 63.1045 76.3567 64.1621 76.3567H73.8105C74.8867 76.3567 75.7402 75.4847 75.7402 74.427C75.7402 73.3694 74.8867 72.4973 73.8105 72.4973Z" fill="url(#paint0_linear_11_116)"/>
<path d="M57.5752 72.4973H21.0039C19.9277 72.4973 19.0742 73.3694 19.0742 74.427C19.0742 75.4847 19.9463 76.3567 21.0039 76.3567H57.5752C58.6514 76.3567 59.5049 75.4847 59.5049 74.427C59.5049 73.3694 58.6514 72.4973 57.5752 72.4973Z" fill="url(#paint1_linear_11_116)"/>
<path d="M73.8105 81.7932H70.9346C69.8584 81.7932 69.0049 82.6653 69.0049 83.7229C69.0049 84.7805 69.877 85.6526 70.9346 85.6526H73.8105C74.8867 85.6526 75.7402 84.7805 75.7402 83.7229C75.7402 82.6653 74.8867 81.7932 73.8105 81.7932Z" fill="url(#paint2_linear_11_116)"/>
<path d="M36.6455 81.7932H32.1182C31.042 81.7932 30.1885 82.6653 30.1885 83.7229C30.1885 84.7805 31.0605 85.6526 32.1182 85.6526H36.6455C37.7217 85.6526 38.5752 84.7805 38.5752 83.7229C38.5752 82.6653 37.7217 81.7932 36.6455 81.7932Z" fill="url(#paint3_linear_11_116)"/>
<path d="M25.5313 81.7932H21.1895C20.1133 81.7932 19.2598 82.6653 19.2598 83.7229C19.2598 84.7805 20.1318 85.6526 21.1895 85.6526H25.5313C26.6074 85.6526 27.4609 84.7805 27.4609 83.7229C27.4609 82.6653 26.6074 81.7932 25.5313 81.7932Z" fill="url(#paint4_linear_11_116)"/>
<path d="M64.3291 81.7932H43.251C42.1748 81.7932 41.3213 82.6653 41.3213 83.7229C41.3213 84.7805 42.1934 85.6526 43.251 85.6526H64.3291C65.4053 85.6526 66.2588 84.7805 66.2588 83.7229C66.2588 82.6653 65.4053 81.7932 64.3291 81.7932Z" fill="url(#paint5_linear_11_116)"/>
<path d="M88.4131 63.1829H83.2363V47.2444C85.8154 48.0608 87.6895 50.4915 87.6895 53.3304C87.6895 54.4065 88.5615 55.26 89.6191 55.26C90.6768 55.26 91.5488 54.388 91.5488 53.3304C91.5488 49.6009 89.5449 46.3352 86.5762 44.5354C88.4131 44.3684 90.2871 44.9807 91.6973 46.3723C92.458 47.1331 93.6826 47.1331 94.4434 46.3723C95.2041 45.6116 95.2041 44.387 94.4434 43.6263C91.2891 40.472 86.5576 39.804 82.7539 41.6223C82.9395 39.2102 84.498 37.0022 86.9102 36.1116C87.9121 35.7405 88.4316 34.6272 88.0605 33.6253C87.6895 32.6233 86.5762 32.1038 85.5742 32.4749C81.7334 33.885 79.2471 37.3733 78.8945 41.2141C77.7998 40.8245 76.6123 40.6018 75.4062 40.6018C72.6602 40.6018 70.0811 41.678 68.1514 43.6077C67.3906 44.3684 67.3906 45.5931 68.1514 46.3538C68.9121 47.1145 70.1367 47.1145 70.8975 46.3538C72.1035 45.1477 73.7178 44.4798 75.4062 44.4798C75.6104 44.4798 75.8145 44.4983 76.0186 44.5169C73.0313 46.3167 71.0273 49.5823 71.0273 53.3118C71.0273 54.388 71.8994 55.2415 72.957 55.2415C74.0332 55.2415 74.8867 54.3694 74.8867 53.3118C74.8867 50.4729 76.7607 48.0423 79.3398 47.2259V63.1643H58.2246V24.0696C66.0732 24.9046 72.1592 30.6751 72.1592 37.6702C72.1592 38.7464 73.0312 39.5999 74.0889 39.5999C75.1465 39.5999 76.0186 38.7278 76.0186 37.6702C76.0186 29.6917 70.0254 22.9378 61.8242 20.7854C67.7988 18.2249 75.2207 19.1155 80.1934 23.4759C80.5645 23.7913 81.0098 23.9583 81.4736 23.9583C82.0117 23.9583 82.5498 23.7356 82.9395 23.2903C83.6445 22.4925 83.5703 21.2679 82.7539 20.5628C79.0244 17.2972 74.1074 15.4973 68.875 15.4973C65.4609 15.4973 62.1768 16.2766 59.2637 17.7239C59.4492 15.0891 58.9854 12.4544 57.835 9.96805C55.7383 5.38504 51.5264 1.78543 46.2939 0.0969548C45.2734 -0.23703 44.1787 0.319611 43.8447 1.34012C43.5107 2.36063 44.0674 3.45535 45.0879 3.78934C49.2813 5.14383 52.6396 8.00125 54.291 11.6009C55.3486 13.9202 55.6455 16.4251 55.2002 18.8372C51.8604 16.6848 47.8525 15.5159 43.6592 15.5159C38.4268 15.5159 33.5098 17.3157 29.7803 20.5813C28.9824 21.2864 28.8896 22.511 29.5947 23.3089C30.2998 24.1067 31.5244 24.1995 32.3223 23.4944C37.2764 19.1341 44.7168 18.2434 50.6914 20.804C42.4902 22.9563 36.4971 29.7102 36.4971 37.6888C36.4971 38.7649 37.3691 39.6184 38.4268 39.6184C39.4844 39.6184 40.3564 38.7464 40.3564 37.6888C40.3564 30.6936 46.4609 24.9046 54.291 24.0882V61.7727C52.6953 49.6751 42.3047 40.3235 29.7617 40.3235C16.6621 40.3235 5.91895 50.51 5.00977 63.387C2.13379 64.0921 0 66.6897 0 69.7884C0 73.4251 2.9502 76.3753 6.58691 76.3753H11.2441C12.7471 76.3753 13.9531 77.5999 13.9531 79.0843C13.9531 80.5686 12.7285 81.7933 11.2441 81.7933H11.04C7.42188 81.7933 4.45312 84.762 4.45312 88.3987C4.45312 92.0354 7.42187 94.9856 11.0586 94.9856H83.96C87.5967 94.9856 90.5469 92.0354 90.5469 88.3987C90.5469 84.762 87.5967 81.8118 83.96 81.8118H82.4014C80.8984 81.8118 79.6924 80.5872 79.6924 79.1028C79.6924 77.6184 80.917 76.3938 82.4014 76.3938H88.4131C92.0498 76.3938 95 73.4436 95 69.8069C95 66.1516 92.0312 63.1829 88.4131 63.1829ZM29.7617 44.2015C40.6533 44.2015 49.6152 52.5511 50.5986 63.2015H8.9248C9.9082 52.5511 18.8701 44.2015 29.7617 44.2015ZM88.4131 72.4974H82.4014C78.7646 72.4974 75.8145 75.4475 75.8145 79.0843C75.8145 82.721 78.7646 85.6712 82.4014 85.6712H83.96C85.4629 85.6712 86.6689 86.8958 86.6689 88.3802C86.6689 89.8645 85.4443 91.0892 83.96 91.0892H11.0586C9.55566 91.0892 8.34961 89.8645 8.34961 88.3802C8.34961 86.8958 9.57422 85.6712 11.0586 85.6712H11.2627C14.8994 85.6712 17.8496 82.721 17.8496 79.0843C17.8496 75.4475 14.8994 72.4974 11.2627 72.4974H6.58691C5.08398 72.4974 3.87793 71.2727 3.87793 69.7884C3.87793 68.2854 5.10254 67.0794 6.58691 67.0794H88.3945C89.8975 67.0794 91.1035 68.304 91.1035 69.7884C91.1035 71.2727 89.8975 72.4974 88.4131 72.4974Z" fill="url(#paint6_linear_11_116)"/>
<defs>
<linearGradient id="paint0_linear_11_116" x1="62.2324" y1="74.9673" x2="75.7402" y2="74.9673" gradientUnits="userSpaceOnUse">
<stop stop-color="#CC074D"/>
<stop offset="0.275" stop-color="#E6194C"/>
<stop offset="0.405" stop-color="#F3224B"/>
<stop offset="0.625" stop-color="#F64850"/>
<stop offset="1" stop-color="#FA8958"/>
</linearGradient>
<linearGradient id="paint1_linear_11_116" x1="19.0742" y1="74.9673" x2="59.5049" y2="74.9673" gradientUnits="userSpaceOnUse">
<stop stop-color="#CC074D"/>
<stop offset="0.275" stop-color="#E6194C"/>
<stop offset="0.405" stop-color="#F3224B"/>
<stop offset="0.625" stop-color="#F64850"/>
<stop offset="1" stop-color="#FA8958"/>
</linearGradient>
<linearGradient id="paint2_linear_11_116" x1="69.0049" y1="84.2632" x2="75.7402" y2="84.2632" gradientUnits="userSpaceOnUse">
<stop stop-color="#CC074D"/>
<stop offset="0.275" stop-color="#E6194C"/>
<stop offset="0.405" stop-color="#F3224B"/>
<stop offset="0.625" stop-color="#F64850"/>
<stop offset="1" stop-color="#FA8958"/>
</linearGradient>
<linearGradient id="paint3_linear_11_116" x1="30.1885" y1="84.2632" x2="38.5752" y2="84.2632" gradientUnits="userSpaceOnUse">
<stop stop-color="#CC074D"/>
<stop offset="0.275" stop-color="#E6194C"/>
<stop offset="0.405" stop-color="#F3224B"/>
<stop offset="0.625" stop-color="#F64850"/>
<stop offset="1" stop-color="#FA8958"/>
</linearGradient>
<linearGradient id="paint4_linear_11_116" x1="19.2598" y1="84.2632" x2="27.4609" y2="84.2632" gradientUnits="userSpaceOnUse">
<stop stop-color="#CC074D"/>
<stop offset="0.275" stop-color="#E6194C"/>
<stop offset="0.405" stop-color="#F3224B"/>
<stop offset="0.625" stop-color="#F64850"/>
<stop offset="1" stop-color="#FA8958"/>
</linearGradient>
<linearGradient id="paint5_linear_11_116" x1="41.3213" y1="84.2632" x2="66.2588" y2="84.2632" gradientUnits="userSpaceOnUse">
<stop stop-color="#CC074D"/>
<stop offset="0.275" stop-color="#E6194C"/>
<stop offset="0.405" stop-color="#F3224B"/>
<stop offset="0.625" stop-color="#F64850"/>
<stop offset="1" stop-color="#FA8958"/>
</linearGradient>
<linearGradient id="paint6_linear_11_116" x1="1.71031e-06" y1="60.7908" x2="95.0139" y2="60.7908" gradientUnits="userSpaceOnUse">
<stop stop-color="#CC074D"/>
<stop offset="0.275" stop-color="#E6194C"/>
<stop offset="0.405" stop-color="#F3224B"/>
<stop offset="0.625" stop-color="#F64850"/>
<stop offset="1" stop-color="#FA8958"/>
</linearGradient>
</defs>
</svg>
