<svg width="93" height="95" viewBox="0 0 93 95" fill="none" xmlns="http://www.w3.org/2000/svg">
<path d="M46.8963 80.0431C46.7015 80.082 46.5068 80.082 46.312 80.082C46.1173 80.082 45.9225 80.0625 45.7278 80.0431C46.0783 80.2183 46.5263 80.2183 46.8963 80.0431Z" fill="url(#paint0_linear_11_93)"/>
<path d="M92.5267 93.1498L81.4064 64.015C81.2116 63.4891 80.7053 63.1386 80.1405 63.1386H63.1581L60.7237 65.8651H79.1862L80.939 70.4418L38.3272 85.5935L23.1366 65.8651H31.8615L29.4271 63.1386H12.4837C11.9189 63.1386 11.4125 63.4891 11.2178 64.015L0.0974279 93.1498C-0.175225 93.851 0.175329 94.63 0.876436 94.9026C1.03224 94.961 1.20751 95 1.36332 95H91.2413C92.0009 95 92.6046 94.3963 92.6046 93.6367C92.6241 93.4615 92.5851 93.3057 92.5267 93.1498ZM3.34979 92.2735L13.4185 65.8651H19.7089L35.6397 86.5478L19.5531 92.2735H3.34979V92.2735ZM27.6938 92.2735L38.2883 88.4953L63.7229 79.4588L73.5773 92.2735H27.6938ZM77.0244 92.2735L66.4105 78.485L81.9127 72.9736L89.2743 92.254H77.0244V92.2735Z" fill="url(#paint1_linear_11_93)"/>
<path d="M79.4978 40.4695L70.1692 26.0773C69.4486 24.9672 68.2217 24.2856 66.8973 24.2856H25.7463C24.4219 24.2856 23.195 24.9477 22.4744 26.0578L13.1263 40.45C12.1721 41.9301 12.3279 43.8582 13.4769 45.1825L29.4465 63.1191L31.8809 65.8457L43.3908 78.7577C43.9945 79.4394 44.8319 79.8873 45.7278 80.0236C45.9226 80.0626 46.1173 80.0626 46.3121 80.0626C46.5068 80.0626 46.7016 80.0431 46.8963 80.0236C47.7922 79.8873 48.6101 79.4394 49.2139 78.7577L60.7237 65.8457L63.1581 63.1191L79.1278 45.1825C80.2963 43.8971 80.4521 41.9496 79.4978 40.4695ZM65.0082 27.6353L57.1597 39.7684L49.3112 27.6353H65.0082V27.6353ZM54.0827 41.1706H38.522L46.2926 29.1544L54.0827 41.1706ZM43.2934 27.6353L35.4644 39.7294L27.6548 27.6353H43.2934ZM24.5583 29.0181L32.4262 41.1706H16.6513L24.5583 29.0181ZM33.9064 63.0802L17.3719 44.5203H34.218L39.9047 62.9828L43.1181 73.4215L33.9064 63.0802ZM46.3121 72.4088L43.4103 62.9828L37.7235 44.5203H54.9006L49.2139 62.9828L46.3121 72.4088ZM58.7178 63.0802L49.4865 73.441L52.6999 63.0023L58.3867 44.5398H75.2327L58.7178 63.0802ZM60.2368 41.1706L68.0853 29.0181L75.9533 41.1706H60.2368Z" fill="url(#paint2_linear_11_93)"/>
<path d="M5.12201 44.5203H8.53017C9.4455 44.5203 10.205 43.7802 10.205 42.8454C10.205 41.9106 9.46498 41.1706 8.53017 41.1706H5.12201C4.20668 41.1706 3.44714 41.9106 3.44714 42.8454C3.44714 43.7802 4.20668 44.5203 5.12201 44.5203Z" fill="url(#paint3_linear_11_93)"/>
<path d="M84.0744 44.5203H87.4826C88.3979 44.5203 89.1574 43.7802 89.1574 42.8454C89.1574 41.9106 88.4174 41.1706 87.4826 41.1706H84.0744C83.1591 41.1706 82.3995 41.9106 82.3995 42.8454C82.3995 43.7802 83.1591 44.5203 84.0744 44.5203Z" fill="url(#paint4_linear_11_93)"/>
<path d="M69.877 20.9748C70.3055 20.9748 70.734 20.819 71.065 20.4879L76.6349 14.918C77.2971 14.2558 77.2971 13.2042 76.6349 12.542C75.9728 11.8799 74.9211 11.8799 74.259 12.542L68.7085 18.1119C68.0464 18.7741 68.0464 19.8258 68.7085 20.4879C69.0201 20.819 69.4486 20.9748 69.877 20.9748Z" fill="url(#paint5_linear_11_93)"/>
<path d="M21.6174 20.449C21.9485 20.78 22.377 20.9358 22.8054 20.9358C23.2339 20.9358 23.6623 20.78 23.9934 20.449C24.6556 19.7868 24.6556 18.7351 23.9934 18.073L18.4235 12.5226C17.7613 11.8604 16.7097 11.8604 16.0475 12.5226C15.3854 13.1847 15.3854 14.2364 16.0475 14.8985L21.6174 20.449Z" fill="url(#paint6_linear_11_93)"/>
<path d="M46.351 14.2558C47.2663 14.2558 48.0259 13.5158 48.0259 12.581V1.67487C48.0259 0.759533 47.2858 0 46.351 0C45.4162 0 44.6761 0.740057 44.6761 1.67487V12.581C44.6761 13.5158 45.4162 14.2558 46.351 14.2558Z" fill="url(#paint7_linear_11_93)"/>
<path d="M46.351 19.9231C46.7989 19.9231 47.2274 19.7479 47.539 19.4362C47.8506 19.1246 48.0259 18.6962 48.0259 18.2483C48.0259 17.8003 47.8506 17.3719 47.539 17.0603C47.2274 16.7487 46.7989 16.5734 46.351 16.5734C45.9031 16.5734 45.4746 16.7487 45.163 17.0603C44.8514 17.3719 44.6761 17.8003 44.6761 18.2483C44.6761 18.6962 44.8514 19.1246 45.163 19.4362C45.4746 19.7479 45.9031 19.9231 46.351 19.9231Z" fill="url(#paint8_linear_11_93)"/>
<defs>
<linearGradient id="paint0_linear_11_93" x1="45.7278" y1="80.1272" x2="46.8963" y2="80.1272" gradientUnits="userSpaceOnUse">
<stop stop-color="#CC074D"/>
<stop offset="0.275" stop-color="#E6194C"/>
<stop offset="0.405" stop-color="#F3224B"/>
<stop offset="0.625" stop-color="#F64850"/>
<stop offset="1" stop-color="#FA8958"/>
</linearGradient>
<linearGradient id="paint1_linear_11_93" x1="0.00488448" y1="83.5299" x2="92.6097" y2="83.5299" gradientUnits="userSpaceOnUse">
<stop stop-color="#CC074D"/>
<stop offset="0.275" stop-color="#E6194C"/>
<stop offset="0.405" stop-color="#F3224B"/>
<stop offset="0.625" stop-color="#F64850"/>
<stop offset="1" stop-color="#FA8958"/>
</linearGradient>
<linearGradient id="paint2_linear_11_93" x1="12.5015" y1="59.9829" x2="80.121" y2="59.9829" gradientUnits="userSpaceOnUse">
<stop stop-color="#CC074D"/>
<stop offset="0.275" stop-color="#E6194C"/>
<stop offset="0.405" stop-color="#F3224B"/>
<stop offset="0.625" stop-color="#F64850"/>
<stop offset="1" stop-color="#FA8958"/>
</linearGradient>
<linearGradient id="paint3_linear_11_93" x1="3.44714" y1="43.3144" x2="10.205" y2="43.3144" gradientUnits="userSpaceOnUse">
<stop stop-color="#CC074D"/>
<stop offset="0.275" stop-color="#E6194C"/>
<stop offset="0.405" stop-color="#F3224B"/>
<stop offset="0.625" stop-color="#F64850"/>
<stop offset="1" stop-color="#FA8958"/>
</linearGradient>
<linearGradient id="paint4_linear_11_93" x1="82.3995" y1="43.3144" x2="89.1574" y2="43.3144" gradientUnits="userSpaceOnUse">
<stop stop-color="#CC074D"/>
<stop offset="0.275" stop-color="#E6194C"/>
<stop offset="0.405" stop-color="#F3224B"/>
<stop offset="0.625" stop-color="#F64850"/>
<stop offset="1" stop-color="#FA8958"/>
</linearGradient>
<linearGradient id="paint5_linear_11_93" x1="68.2119" y1="17.7602" x2="77.1316" y2="17.7602" gradientUnits="userSpaceOnUse">
<stop stop-color="#CC074D"/>
<stop offset="0.275" stop-color="#E6194C"/>
<stop offset="0.405" stop-color="#F3224B"/>
<stop offset="0.625" stop-color="#F64850"/>
<stop offset="1" stop-color="#FA8958"/>
</linearGradient>
<linearGradient id="paint6_linear_11_93" x1="15.5509" y1="17.7283" x2="24.49" y2="17.7283" gradientUnits="userSpaceOnUse">
<stop stop-color="#CC074D"/>
<stop offset="0.275" stop-color="#E6194C"/>
<stop offset="0.405" stop-color="#F3224B"/>
<stop offset="0.625" stop-color="#F64850"/>
<stop offset="1" stop-color="#FA8958"/>
</linearGradient>
<linearGradient id="paint7_linear_11_93" x1="44.6761" y1="9.12374" x2="48.0259" y2="9.12374" gradientUnits="userSpaceOnUse">
<stop stop-color="#CC074D"/>
<stop offset="0.275" stop-color="#E6194C"/>
<stop offset="0.405" stop-color="#F3224B"/>
<stop offset="0.625" stop-color="#F64850"/>
<stop offset="1" stop-color="#FA8958"/>
</linearGradient>
<linearGradient id="paint8_linear_11_93" x1="44.6761" y1="18.7172" x2="48.0259" y2="18.7172" gradientUnits="userSpaceOnUse">
<stop stop-color="#CC074D"/>
<stop offset="0.275" stop-color="#E6194C"/>
<stop offset="0.405" stop-color="#F3224B"/>
<stop offset="0.625" stop-color="#F64850"/>
<stop offset="1" stop-color="#FA8958"/>
</linearGradient>
</defs>
</svg>
