<svg width="89" height="95" viewBox="0 0 89 95" fill="none" xmlns="http://www.w3.org/2000/svg">
<path d="M53.8482 33.2259C53.8482 34.0983 54.5536 34.8036 55.426 34.8036H71.2779C72.1503 34.8036 72.8556 34.0983 72.8556 33.2259C72.8556 32.3535 72.1503 31.6481 71.2779 31.6481H55.4445C54.5536 31.6481 53.8482 32.3535 53.8482 33.2259Z" fill="url(#paint0_linear_11_118)"/>
<path d="M63.3519 42.7296C63.3519 43.602 64.0572 44.3074 64.9296 44.3074H74.4333C75.3058 44.3074 76.0111 43.602 76.0111 42.7296C76.0111 41.8572 75.3058 41.1518 74.4333 41.1518H64.9296C64.0572 41.1518 63.3519 41.8572 63.3519 42.7296Z" fill="url(#paint1_linear_11_118)"/>
<path d="M61.7741 25.2999C62.6465 25.2999 63.3519 24.5946 63.3519 23.7222C63.3519 22.8498 62.6465 22.1444 61.7741 22.1444H58.6C57.7276 22.1444 57.0223 22.8498 57.0223 23.7222C57.0223 24.5946 57.7276 25.2999 58.6 25.2999H61.7741Z" fill="url(#paint2_linear_11_118)"/>
<path d="M42.7667 41.1518C41.8943 41.1518 41.189 41.8572 41.189 42.7296C41.189 43.602 41.8943 44.3074 42.7667 44.3074H58.6001C59.4725 44.3074 60.1778 43.602 60.1778 42.7296C60.1778 41.8572 59.4725 41.1518 58.6001 41.1518H42.7667Z" fill="url(#paint3_linear_11_118)"/>
<path d="M50.6927 85.4963H20.5852C17.968 85.4963 15.8334 83.3617 15.8334 80.7444V7.88883C15.8334 7.01642 15.128 6.31107 14.2556 6.31107C9.89355 6.31107 6.32965 9.8564 6.32965 14.237C6.32965 15.1094 7.035 15.8148 7.90742 15.8148C8.77983 15.8148 9.48518 15.1094 9.48518 14.237C9.48518 12.1766 10.8031 10.4133 12.6593 9.76359V80.7444C12.6593 85.1065 16.2046 88.6704 20.5852 88.6704H50.6741C51.5466 88.6704 52.2519 87.965 52.2519 87.0926C52.2519 86.2202 51.5651 85.4963 50.6927 85.4963Z" fill="url(#paint4_linear_11_118)"/>
<path d="M26.9334 34.8036H49.1149C49.9873 34.8036 50.6926 34.0983 50.6926 33.2259C50.6926 32.3535 49.9873 31.6481 49.1149 31.6481H26.9334C26.0609 31.6481 25.3556 32.3535 25.3556 33.2259C25.3556 34.0983 26.0424 34.8036 26.9334 34.8036Z" fill="url(#paint5_linear_11_118)"/>
<path d="M26.9334 25.2999H33.263C34.1354 25.2999 34.8407 24.5946 34.8407 23.7222C34.8407 22.8498 34.1354 22.1444 33.263 22.1444H26.9334C26.0609 22.1444 25.3556 22.8498 25.3556 23.7222C25.3556 24.5946 26.0424 25.2999 26.9334 25.2999Z" fill="url(#paint6_linear_11_118)"/>
<path d="M52.2704 22.1444H39.5926C38.7202 22.1444 38.0148 22.8498 38.0148 23.7222C38.0148 24.5946 38.7202 25.2999 39.5926 25.2999H52.2704C53.1428 25.2999 53.8482 24.5946 53.8482 23.7222C53.8482 22.8498 53.1428 22.1444 52.2704 22.1444Z" fill="url(#paint7_linear_11_118)"/>
<path d="M74.4519 0H14.2556C6.42243 0 0.0371239 6.36675 0 14.1999V14.2184V14.237V14.2556V14.2741C0.0185619 19.323 2.74717 24.0377 7.12778 26.5621C7.88882 27.0076 8.85404 26.7478 9.29953 25.9867C9.74502 25.2257 9.48515 24.2605 8.72411 23.815C5.30871 21.8288 3.19265 18.1721 3.17409 14.2184C3.19265 8.11157 8.14869 3.15553 14.2556 3.15553H74.4519C80.5588 3.15553 85.5334 8.13013 85.5334 14.237V80.763C85.5334 81.5612 85.3107 82.3779 84.8837 83.0832C84.4383 83.8443 84.6981 84.8095 85.4406 85.255C85.7005 85.4035 85.9789 85.4777 86.2388 85.4777C86.7771 85.4777 87.3154 85.1993 87.6123 84.6981C88.3177 83.4916 88.6889 82.1366 88.6889 80.763V14.2556C88.7075 6.38531 82.3036 0 74.4519 0Z" fill="url(#paint8_linear_11_118)"/>
<path d="M79.2038 72.8185C79.2038 67.584 74.9345 63.3148 69.7001 63.3148C64.4656 63.3148 60.1964 67.584 60.1964 72.8185C60.1964 78.0529 64.4656 82.3222 69.7001 82.3222C74.9345 82.3222 79.2038 78.0715 79.2038 72.8185ZM69.7001 79.1667C66.2104 79.1667 63.3704 76.3267 63.3704 72.837C63.3704 69.3474 66.2104 66.5074 69.7001 66.5074C73.1897 66.5074 76.0297 69.3474 76.0297 72.837C76.0297 76.3267 73.1897 79.1667 69.7001 79.1667Z" fill="url(#paint9_linear_11_118)"/>
<path d="M66.8415 83.9185C66.0805 83.473 65.1153 83.7329 64.6698 84.4939L61.2544 90.3966L60.7161 89.5799C60.4377 89.1716 59.9922 88.8931 59.491 88.8746L58.5072 88.8189L61.9783 82.8234C62.4238 82.0623 62.1639 81.0971 61.4029 80.6516C60.6418 80.2061 59.6766 80.466 59.2311 81.227L54.4793 89.45C54.2008 89.9326 54.2008 90.508 54.4607 90.9906C54.7206 91.4732 55.2032 91.7888 55.76 91.8259L58.5072 91.993L60.0293 94.2946C60.3263 94.7401 60.8275 95 61.3472 95H61.4029C61.9412 94.9814 62.4423 94.6844 62.7208 94.2018L67.417 86.0717C67.8624 85.3292 67.6026 84.3454 66.8415 83.9185Z" fill="url(#paint10_linear_11_118)"/>
<path d="M80.1876 81.3013C79.7421 80.5403 78.7769 80.2804 78.0158 80.7259C77.2548 81.1714 76.9949 82.1366 77.4404 82.8976L80.8744 88.8189L79.8906 88.8746C79.3894 88.9117 78.9439 89.1716 78.6655 89.5799L78.1272 90.3966L74.7304 84.5125C74.2849 83.7515 73.3197 83.4916 72.5586 83.9371C71.7976 84.3826 71.5377 85.3478 71.9832 86.1088L76.6608 94.2018C76.9392 94.6844 77.4404 94.9814 77.9787 95H78.0344C78.5727 95 79.0553 94.7401 79.3523 94.2946L80.8744 91.993L83.6216 91.8259C84.1784 91.7888 84.661 91.4732 84.9209 90.9906C85.1808 90.508 85.1622 89.914 84.9023 89.45L80.1876 81.3013Z" fill="url(#paint11_linear_11_118)"/>
<path d="M26.9334 44.3074H36.4371C37.3095 44.3074 38.0148 43.602 38.0148 42.7296C38.0148 41.8572 37.3095 41.1518 36.4371 41.1518H26.9334C26.0609 41.1518 25.3556 41.8572 25.3556 42.7296C25.3556 43.602 26.0424 44.3074 26.9334 44.3074Z" fill="url(#paint12_linear_11_118)"/>
<path d="M26.9334 53.811H45.9408C46.8132 53.811 47.5185 53.1057 47.5185 52.2333C47.5185 51.3609 46.8132 50.6555 45.9408 50.6555H26.9334C26.0609 50.6555 25.3556 51.3609 25.3556 52.2333C25.3556 53.1057 26.0424 53.811 26.9334 53.811Z" fill="url(#paint13_linear_11_118)"/>
<path d="M27.1004 73.5424C27.4902 74.322 28.4369 74.6375 29.2165 74.2477C29.9961 73.8579 30.3116 72.9113 29.9218 72.1131C28.3626 68.9762 28.01 66.1547 28.9752 64.577C29.4949 63.7417 30.4044 63.3148 31.6667 63.3148C32.4277 63.3148 32.7061 63.5746 32.8732 63.8345C34.0611 65.5422 32.9289 70.721 31.7595 73.8579C31.4996 74.5633 31.7595 75.3429 32.3906 75.7513C33.0217 76.1596 33.8384 76.0668 34.3581 75.5471C35.0264 74.8789 35.7688 74.1921 36.4 73.6538V74.4334C36.4 75.0645 36.7898 75.6585 37.3837 75.8998C37.9777 76.1411 38.6645 76.0111 39.11 75.5656C39.8339 74.8417 40.6692 74.1364 41.3746 73.6166C41.356 73.6538 41.3374 73.6909 41.3189 73.728C41.0776 74.2106 41.0961 74.8046 41.3931 75.2687C41.6901 75.7327 42.1913 76.0111 42.7481 76.0111H49.0778C49.9502 76.0111 50.6555 75.3058 50.6555 74.4334C50.6555 73.561 49.9502 72.8556 49.0778 72.8556H44.957C45.0869 72.0946 45.0498 71.3335 44.6786 70.721C44.2702 70.0713 43.5649 69.7001 42.7481 69.7001C41.7644 69.7001 40.6135 70.2941 39.574 71.0365C39.4998 70.3497 39.0914 69.7743 38.4603 69.5144C38.0334 69.3474 37.4951 69.1061 36.1772 69.9043C36.6969 67.1756 36.8454 64.0387 35.4904 62.0711C34.8964 61.2173 33.7456 60.1964 31.6667 60.1964C29.2907 60.1964 27.3789 61.1801 26.2837 62.9621C24.7059 65.4865 25.0029 69.3474 27.1004 73.5424Z" fill="url(#paint14_linear_11_118)"/>
<path d="M69.7001 52.2333C69.7001 51.3609 68.9948 50.6555 68.1223 50.6555H52.289C51.4166 50.6555 50.7112 51.3609 50.7112 52.2333C50.7112 53.1057 51.4166 53.811 52.289 53.811H68.1223C68.9948 53.811 69.7001 53.1057 69.7001 52.2333Z" fill="url(#paint15_linear_11_118)"/>
<defs>
<linearGradient id="paint0_linear_11_118" x1="53.8482" y1="33.6676" x2="72.8556" y2="33.6676" gradientUnits="userSpaceOnUse">
<stop stop-color="#CC074D"/>
<stop offset="0.275" stop-color="#E6194C"/>
<stop offset="0.405" stop-color="#F3224B"/>
<stop offset="0.625" stop-color="#F64850"/>
<stop offset="1" stop-color="#FA8958"/>
</linearGradient>
<linearGradient id="paint1_linear_11_118" x1="63.3519" y1="43.1714" x2="76.0111" y2="43.1714" gradientUnits="userSpaceOnUse">
<stop stop-color="#CC074D"/>
<stop offset="0.275" stop-color="#E6194C"/>
<stop offset="0.405" stop-color="#F3224B"/>
<stop offset="0.625" stop-color="#F64850"/>
<stop offset="1" stop-color="#FA8958"/>
</linearGradient>
<linearGradient id="paint2_linear_11_118" x1="57.0223" y1="24.1639" x2="63.3519" y2="24.1639" gradientUnits="userSpaceOnUse">
<stop stop-color="#CC074D"/>
<stop offset="0.275" stop-color="#E6194C"/>
<stop offset="0.405" stop-color="#F3224B"/>
<stop offset="0.625" stop-color="#F64850"/>
<stop offset="1" stop-color="#FA8958"/>
</linearGradient>
<linearGradient id="paint3_linear_11_118" x1="41.189" y1="43.1714" x2="60.1778" y2="43.1714" gradientUnits="userSpaceOnUse">
<stop stop-color="#CC074D"/>
<stop offset="0.275" stop-color="#E6194C"/>
<stop offset="0.405" stop-color="#F3224B"/>
<stop offset="0.625" stop-color="#F64850"/>
<stop offset="1" stop-color="#FA8958"/>
</linearGradient>
<linearGradient id="paint4_linear_11_118" x1="6.32965" y1="59.021" x2="52.2519" y2="59.021" gradientUnits="userSpaceOnUse">
<stop stop-color="#CC074D"/>
<stop offset="0.275" stop-color="#E6194C"/>
<stop offset="0.405" stop-color="#F3224B"/>
<stop offset="0.625" stop-color="#F64850"/>
<stop offset="1" stop-color="#FA8958"/>
</linearGradient>
<linearGradient id="paint5_linear_11_118" x1="25.3556" y1="33.6676" x2="50.6926" y2="33.6676" gradientUnits="userSpaceOnUse">
<stop stop-color="#CC074D"/>
<stop offset="0.275" stop-color="#E6194C"/>
<stop offset="0.405" stop-color="#F3224B"/>
<stop offset="0.625" stop-color="#F64850"/>
<stop offset="1" stop-color="#FA8958"/>
</linearGradient>
<linearGradient id="paint6_linear_11_118" x1="25.3556" y1="24.1639" x2="34.8407" y2="24.1639" gradientUnits="userSpaceOnUse">
<stop stop-color="#CC074D"/>
<stop offset="0.275" stop-color="#E6194C"/>
<stop offset="0.405" stop-color="#F3224B"/>
<stop offset="0.625" stop-color="#F64850"/>
<stop offset="1" stop-color="#FA8958"/>
</linearGradient>
<linearGradient id="paint7_linear_11_118" x1="38.0148" y1="24.1639" x2="53.8482" y2="24.1639" gradientUnits="userSpaceOnUse">
<stop stop-color="#CC074D"/>
<stop offset="0.275" stop-color="#E6194C"/>
<stop offset="0.405" stop-color="#F3224B"/>
<stop offset="0.625" stop-color="#F64850"/>
<stop offset="1" stop-color="#FA8958"/>
</linearGradient>
<linearGradient id="paint8_linear_11_118" x1="1.59646e-06" y1="54.7058" x2="88.689" y2="54.7058" gradientUnits="userSpaceOnUse">
<stop stop-color="#CC074D"/>
<stop offset="0.275" stop-color="#E6194C"/>
<stop offset="0.405" stop-color="#F3224B"/>
<stop offset="0.625" stop-color="#F64850"/>
<stop offset="1" stop-color="#FA8958"/>
</linearGradient>
<linearGradient id="paint9_linear_11_118" x1="60.1964" y1="75.4795" x2="79.2038" y2="75.4795" gradientUnits="userSpaceOnUse">
<stop stop-color="#CC074D"/>
<stop offset="0.275" stop-color="#E6194C"/>
<stop offset="0.405" stop-color="#F3224B"/>
<stop offset="0.625" stop-color="#F64850"/>
<stop offset="1" stop-color="#FA8958"/>
</linearGradient>
<linearGradient id="paint10_linear_11_118" x1="54.2681" y1="89.7561" x2="67.6349" y2="89.7561" gradientUnits="userSpaceOnUse">
<stop stop-color="#CC074D"/>
<stop offset="0.275" stop-color="#E6194C"/>
<stop offset="0.405" stop-color="#F3224B"/>
<stop offset="0.625" stop-color="#F64850"/>
<stop offset="1" stop-color="#FA8958"/>
</linearGradient>
<linearGradient id="paint11_linear_11_118" x1="71.7653" y1="89.7829" x2="85.1068" y2="89.7829" gradientUnits="userSpaceOnUse">
<stop stop-color="#CC074D"/>
<stop offset="0.275" stop-color="#E6194C"/>
<stop offset="0.405" stop-color="#F3224B"/>
<stop offset="0.625" stop-color="#F64850"/>
<stop offset="1" stop-color="#FA8958"/>
</linearGradient>
<linearGradient id="paint12_linear_11_118" x1="25.3556" y1="43.1714" x2="38.0148" y2="43.1714" gradientUnits="userSpaceOnUse">
<stop stop-color="#CC074D"/>
<stop offset="0.275" stop-color="#E6194C"/>
<stop offset="0.405" stop-color="#F3224B"/>
<stop offset="0.625" stop-color="#F64850"/>
<stop offset="1" stop-color="#FA8958"/>
</linearGradient>
<linearGradient id="paint13_linear_11_118" x1="25.3556" y1="52.6751" x2="47.5185" y2="52.6751" gradientUnits="userSpaceOnUse">
<stop stop-color="#CC074D"/>
<stop offset="0.275" stop-color="#E6194C"/>
<stop offset="0.405" stop-color="#F3224B"/>
<stop offset="0.625" stop-color="#F64850"/>
<stop offset="1" stop-color="#FA8958"/>
</linearGradient>
<linearGradient id="paint14_linear_11_118" x1="25.2822" y1="70.3231" x2="50.6555" y2="70.3231" gradientUnits="userSpaceOnUse">
<stop stop-color="#CC074D"/>
<stop offset="0.275" stop-color="#E6194C"/>
<stop offset="0.405" stop-color="#F3224B"/>
<stop offset="0.625" stop-color="#F64850"/>
<stop offset="1" stop-color="#FA8958"/>
</linearGradient>
<linearGradient id="paint15_linear_11_118" x1="50.7112" y1="52.6751" x2="69.7001" y2="52.6751" gradientUnits="userSpaceOnUse">
<stop stop-color="#CC074D"/>
<stop offset="0.275" stop-color="#E6194C"/>
<stop offset="0.405" stop-color="#F3224B"/>
<stop offset="0.625" stop-color="#F64850"/>
<stop offset="1" stop-color="#FA8958"/>
</linearGradient>
</defs>
</svg>
