<svg width="95" height="95" viewBox="0 0 95 95" fill="none" xmlns="http://www.w3.org/2000/svg">
<path d="M30.6451 55.1613H33.7097V58.2258H30.6451V55.1613Z" fill="url(#paint0_linear_11_14)"/>
<path d="M24.5161 55.1613H27.5806V58.2258H24.5161V55.1613Z" fill="url(#paint1_linear_11_14)"/>
<path d="M36.7742 55.1613H39.8387V58.2258H36.7742V55.1613Z" fill="url(#paint2_linear_11_14)"/>
<path d="M36.7742 61.2903H39.8387V64.3548H36.7742V61.2903Z" fill="url(#paint3_linear_11_14)"/>
<path d="M30.6451 61.2903H33.7097V64.3548H30.6451V61.2903Z" fill="url(#paint4_linear_11_14)"/>
<path d="M24.5161 61.2903H27.5806V64.3548H24.5161V61.2903Z" fill="url(#paint5_linear_11_14)"/>
<path d="M36.7742 67.4193H39.8387V70.4839H36.7742V67.4193Z" fill="url(#paint6_linear_11_14)"/>
<path d="M30.6451 67.4193H33.7097V70.4839H30.6451V67.4193Z" fill="url(#paint7_linear_11_14)"/>
<path d="M24.5161 67.4193H27.5806V70.4839H24.5161V67.4193Z" fill="url(#paint8_linear_11_14)"/>
<path d="M12.2581 61.2903H15.3226V64.3548H12.2581V61.2903Z" fill="url(#paint9_linear_11_14)"/>
<path d="M12.2581 67.4193H15.3226V70.4839H12.2581V67.4193Z" fill="url(#paint10_linear_11_14)"/>
<path d="M64.3548 24.5161H36.7742V33.7097H64.3548V24.5161ZM61.2903 30.6451H39.8387V27.5806H61.2903V30.6451Z" fill="url(#paint11_linear_11_14)"/>
<path d="M79.6774 30.6452H82.742V33.7097H79.6774V30.6452Z" fill="url(#paint12_linear_11_14)"/>
<path d="M85.8065 30.6452H88.871V33.7097H85.8065V30.6452Z" fill="url(#paint13_linear_11_14)"/>
<path d="M85.8065 36.7742H88.871V39.8387H85.8065V36.7742Z" fill="url(#paint14_linear_11_14)"/>
<path d="M79.6774 36.7742H82.742V39.8387H79.6774V36.7742Z" fill="url(#paint15_linear_11_14)"/>
<path d="M79.6774 42.9032H82.742V45.9677H79.6774V42.9032Z" fill="url(#paint16_linear_11_14)"/>
<path d="M85.8065 42.9032H88.871V45.9677H85.8065V42.9032Z" fill="url(#paint17_linear_11_14)"/>
<path d="M85.8065 49.0323H88.871V52.0968H85.8065V49.0323Z" fill="url(#paint18_linear_11_14)"/>
<path d="M79.6774 49.0323H82.742V52.0968H79.6774V49.0323Z" fill="url(#paint19_linear_11_14)"/>
<path d="M95 18.3871V13.7903C95 7.87198 90.1925 3.06452 84.2742 3.06452C78.3558 3.06452 73.5484 7.87198 73.5484 13.7903V18.3871H76.6129V24.5161H73.5484V56.3296C72.4567 54.0696 71.4415 51.7712 70.4839 49.4728V18.3871H67.4194V6.12903H62.8226V0H38.3065V6.12903H33.7097V18.3871H30.6452V49.0323H18.3871V55.1613H6.12903V83.7954C2.50907 85.5192 0 89.1966 0 93.4677V95H95V91.9355H85.8064V82.5887C90.997 81.631 95 75.8851 95 68.9516V24.5161H91.9355V18.3871H95ZM76.6129 13.7903C76.6129 9.55746 80.0413 6.12903 84.2742 6.12903C88.5071 6.12903 91.9355 9.55746 91.9355 13.7903V15.3226H76.6129V13.7903ZM79.6774 18.3871H82.7419V24.5161H79.6774V18.3871ZM67.4194 68.9516V63.6462L71.3266 61.0413L69.622 58.4939L67.4002 59.9687V56.6935H64.3357V63.7228L62.3629 61.75L60.1986 63.9143L64.3548 68.0706V68.9708H54.8548C59.0111 62.1714 62.5544 54.9506 65.4083 47.5192H66.3659C69.2198 54.9506 72.7823 62.1714 76.9194 68.9708H67.4194V68.9516ZM41.371 3.06452H59.7581V6.12903H41.371V3.06452ZM36.7742 9.19355H64.3548V18.3871H61.2903V12.2581H58.2258V18.3871H55.1613V12.2581H52.0968V18.3871H49.0323V12.2581H45.9677V18.3871H42.9032V12.2581H39.8387V18.3871H36.7742V9.19355ZM33.7097 21.4516H67.4194V44.4355H64.3548V36.7742H36.7742V45.9677H62.7077C59.7198 53.8206 55.9657 61.4052 51.5222 68.5111L49.3387 72.0161H64.3548V82.8952C62.3054 80.7883 59.4133 79.5242 56.2339 79.6966C54.8931 75.2339 50.7177 72.0161 45.9677 72.0161V49.0323H33.7097V21.4516V21.4516ZM61.2903 39.8387V42.9032H39.8387V39.8387H61.2903ZM21.4516 52.0968H42.9032V72.495C39.3982 73.5292 36.621 76.2873 35.6442 79.869C34.1885 79.6008 32.6946 79.6391 31.2772 79.9839C29.5917 76.1341 25.7611 73.5675 21.4708 73.5675V52.0968H21.4516ZM9.19355 58.2258H18.3871V74.0081C17.2762 74.3337 16.2419 74.8508 15.3226 75.502V73.5484H12.2581V76.6129H13.9627C12.3155 78.2218 11.1663 80.3478 10.8407 82.7419C10.8024 82.7419 10.7641 82.7419 10.7258 82.7419C10.2087 82.7419 9.69153 82.7994 9.19355 82.8569V58.2258V58.2258ZM10.7258 85.8064C11.128 85.8064 11.5494 85.8448 12.0091 85.9214L13.7903 86.0937V84.2742C13.7903 80.0413 17.2187 76.6129 21.4516 76.6129C24.8992 76.6129 27.9254 78.9304 28.8448 82.2631L29.3044 83.9294L30.8942 83.2974C32.6179 82.6079 34.5141 82.5696 36.3145 83.2208L38.1532 83.8911L38.3639 81.9567C38.7853 78.0494 42.0605 75.119 45.9869 75.119C49.7409 75.119 52.997 77.9153 53.5524 81.631L53.7823 83.2016L55.3337 82.9143C55.8125 82.8185 56.2722 82.7802 56.7127 82.7802C60.9456 82.7802 64.374 86.2087 64.374 90.4415V91.9738H3.21774C3.92641 88.4496 7.02923 85.8064 10.7258 85.8064ZM67.4194 91.9355V90.4032V72.0161H73.8165C74.7933 77.5706 78.375 81.7843 82.7419 82.5887V91.9355H67.4194ZM84.2742 79.6774C80.8649 79.6774 77.8962 76.4788 76.9385 72.0161H82.4355L80.252 68.5111C79.3135 66.998 78.4133 65.4657 77.5323 63.9143C78.873 60.4476 81.4395 58.2258 84.2742 58.2258C88.5071 58.2258 91.9355 63.0333 91.9355 68.9516C91.9355 74.87 88.5071 79.6774 84.2742 79.6774ZM84.2742 55.1613C81.3246 55.1613 78.5857 56.7319 76.6129 59.3175V27.5806H91.9355V59.3175C89.9819 56.751 87.2812 55.1613 84.2742 55.1613ZM88.871 24.5161H85.8064V18.3871H88.871V24.5161Z" fill="url(#paint20_linear_11_14)"/>
<defs>
<linearGradient id="paint0_linear_11_14" x1="30.6451" y1="57.1226" x2="33.7097" y2="57.1226" gradientUnits="userSpaceOnUse">
<stop stop-color="#CC074D"/>
<stop offset="0.275" stop-color="#E6194C"/>
<stop offset="0.405" stop-color="#F3224B"/>
<stop offset="0.625" stop-color="#F64850"/>
<stop offset="1" stop-color="#FA8958"/>
</linearGradient>
<linearGradient id="paint1_linear_11_14" x1="24.5161" y1="57.1226" x2="27.5806" y2="57.1226" gradientUnits="userSpaceOnUse">
<stop stop-color="#CC074D"/>
<stop offset="0.275" stop-color="#E6194C"/>
<stop offset="0.405" stop-color="#F3224B"/>
<stop offset="0.625" stop-color="#F64850"/>
<stop offset="1" stop-color="#FA8958"/>
</linearGradient>
<linearGradient id="paint2_linear_11_14" x1="36.7742" y1="57.1226" x2="39.8387" y2="57.1226" gradientUnits="userSpaceOnUse">
<stop stop-color="#CC074D"/>
<stop offset="0.275" stop-color="#E6194C"/>
<stop offset="0.405" stop-color="#F3224B"/>
<stop offset="0.625" stop-color="#F64850"/>
<stop offset="1" stop-color="#FA8958"/>
</linearGradient>
<linearGradient id="paint3_linear_11_14" x1="36.7742" y1="63.2516" x2="39.8387" y2="63.2516" gradientUnits="userSpaceOnUse">
<stop stop-color="#CC074D"/>
<stop offset="0.275" stop-color="#E6194C"/>
<stop offset="0.405" stop-color="#F3224B"/>
<stop offset="0.625" stop-color="#F64850"/>
<stop offset="1" stop-color="#FA8958"/>
</linearGradient>
<linearGradient id="paint4_linear_11_14" x1="30.6451" y1="63.2516" x2="33.7097" y2="63.2516" gradientUnits="userSpaceOnUse">
<stop stop-color="#CC074D"/>
<stop offset="0.275" stop-color="#E6194C"/>
<stop offset="0.405" stop-color="#F3224B"/>
<stop offset="0.625" stop-color="#F64850"/>
<stop offset="1" stop-color="#FA8958"/>
</linearGradient>
<linearGradient id="paint5_linear_11_14" x1="24.5161" y1="63.2516" x2="27.5806" y2="63.2516" gradientUnits="userSpaceOnUse">
<stop stop-color="#CC074D"/>
<stop offset="0.275" stop-color="#E6194C"/>
<stop offset="0.405" stop-color="#F3224B"/>
<stop offset="0.625" stop-color="#F64850"/>
<stop offset="1" stop-color="#FA8958"/>
</linearGradient>
<linearGradient id="paint6_linear_11_14" x1="36.7742" y1="69.3806" x2="39.8387" y2="69.3806" gradientUnits="userSpaceOnUse">
<stop stop-color="#CC074D"/>
<stop offset="0.275" stop-color="#E6194C"/>
<stop offset="0.405" stop-color="#F3224B"/>
<stop offset="0.625" stop-color="#F64850"/>
<stop offset="1" stop-color="#FA8958"/>
</linearGradient>
<linearGradient id="paint7_linear_11_14" x1="30.6451" y1="69.3806" x2="33.7097" y2="69.3806" gradientUnits="userSpaceOnUse">
<stop stop-color="#CC074D"/>
<stop offset="0.275" stop-color="#E6194C"/>
<stop offset="0.405" stop-color="#F3224B"/>
<stop offset="0.625" stop-color="#F64850"/>
<stop offset="1" stop-color="#FA8958"/>
</linearGradient>
<linearGradient id="paint8_linear_11_14" x1="24.5161" y1="69.3806" x2="27.5806" y2="69.3806" gradientUnits="userSpaceOnUse">
<stop stop-color="#CC074D"/>
<stop offset="0.275" stop-color="#E6194C"/>
<stop offset="0.405" stop-color="#F3224B"/>
<stop offset="0.625" stop-color="#F64850"/>
<stop offset="1" stop-color="#FA8958"/>
</linearGradient>
<linearGradient id="paint9_linear_11_14" x1="12.2581" y1="63.2516" x2="15.3226" y2="63.2516" gradientUnits="userSpaceOnUse">
<stop stop-color="#CC074D"/>
<stop offset="0.275" stop-color="#E6194C"/>
<stop offset="0.405" stop-color="#F3224B"/>
<stop offset="0.625" stop-color="#F64850"/>
<stop offset="1" stop-color="#FA8958"/>
</linearGradient>
<linearGradient id="paint10_linear_11_14" x1="12.2581" y1="69.3806" x2="15.3226" y2="69.3806" gradientUnits="userSpaceOnUse">
<stop stop-color="#CC074D"/>
<stop offset="0.275" stop-color="#E6194C"/>
<stop offset="0.405" stop-color="#F3224B"/>
<stop offset="0.625" stop-color="#F64850"/>
<stop offset="1" stop-color="#FA8958"/>
</linearGradient>
<linearGradient id="paint11_linear_11_14" x1="36.7742" y1="30.4" x2="64.3548" y2="30.4" gradientUnits="userSpaceOnUse">
<stop stop-color="#CC074D"/>
<stop offset="0.275" stop-color="#E6194C"/>
<stop offset="0.405" stop-color="#F3224B"/>
<stop offset="0.625" stop-color="#F64850"/>
<stop offset="1" stop-color="#FA8958"/>
</linearGradient>
<linearGradient id="paint12_linear_11_14" x1="79.6774" y1="32.6065" x2="82.742" y2="32.6065" gradientUnits="userSpaceOnUse">
<stop stop-color="#CC074D"/>
<stop offset="0.275" stop-color="#E6194C"/>
<stop offset="0.405" stop-color="#F3224B"/>
<stop offset="0.625" stop-color="#F64850"/>
<stop offset="1" stop-color="#FA8958"/>
</linearGradient>
<linearGradient id="paint13_linear_11_14" x1="85.8065" y1="32.6065" x2="88.871" y2="32.6065" gradientUnits="userSpaceOnUse">
<stop stop-color="#CC074D"/>
<stop offset="0.275" stop-color="#E6194C"/>
<stop offset="0.405" stop-color="#F3224B"/>
<stop offset="0.625" stop-color="#F64850"/>
<stop offset="1" stop-color="#FA8958"/>
</linearGradient>
<linearGradient id="paint14_linear_11_14" x1="85.8065" y1="38.7355" x2="88.871" y2="38.7355" gradientUnits="userSpaceOnUse">
<stop stop-color="#CC074D"/>
<stop offset="0.275" stop-color="#E6194C"/>
<stop offset="0.405" stop-color="#F3224B"/>
<stop offset="0.625" stop-color="#F64850"/>
<stop offset="1" stop-color="#FA8958"/>
</linearGradient>
<linearGradient id="paint15_linear_11_14" x1="79.6774" y1="38.7355" x2="82.742" y2="38.7355" gradientUnits="userSpaceOnUse">
<stop stop-color="#CC074D"/>
<stop offset="0.275" stop-color="#E6194C"/>
<stop offset="0.405" stop-color="#F3224B"/>
<stop offset="0.625" stop-color="#F64850"/>
<stop offset="1" stop-color="#FA8958"/>
</linearGradient>
<linearGradient id="paint16_linear_11_14" x1="79.6774" y1="44.8645" x2="82.742" y2="44.8645" gradientUnits="userSpaceOnUse">
<stop stop-color="#CC074D"/>
<stop offset="0.275" stop-color="#E6194C"/>
<stop offset="0.405" stop-color="#F3224B"/>
<stop offset="0.625" stop-color="#F64850"/>
<stop offset="1" stop-color="#FA8958"/>
</linearGradient>
<linearGradient id="paint17_linear_11_14" x1="85.8065" y1="44.8645" x2="88.871" y2="44.8645" gradientUnits="userSpaceOnUse">
<stop stop-color="#CC074D"/>
<stop offset="0.275" stop-color="#E6194C"/>
<stop offset="0.405" stop-color="#F3224B"/>
<stop offset="0.625" stop-color="#F64850"/>
<stop offset="1" stop-color="#FA8958"/>
</linearGradient>
<linearGradient id="paint18_linear_11_14" x1="85.8065" y1="50.9935" x2="88.871" y2="50.9935" gradientUnits="userSpaceOnUse">
<stop stop-color="#CC074D"/>
<stop offset="0.275" stop-color="#E6194C"/>
<stop offset="0.405" stop-color="#F3224B"/>
<stop offset="0.625" stop-color="#F64850"/>
<stop offset="1" stop-color="#FA8958"/>
</linearGradient>
<linearGradient id="paint19_linear_11_14" x1="79.6774" y1="50.9935" x2="82.742" y2="50.9935" gradientUnits="userSpaceOnUse">
<stop stop-color="#CC074D"/>
<stop offset="0.275" stop-color="#E6194C"/>
<stop offset="0.405" stop-color="#F3224B"/>
<stop offset="0.625" stop-color="#F64850"/>
<stop offset="1" stop-color="#FA8958"/>
</linearGradient>
<linearGradient id="paint20_linear_11_14" x1="1.71006e-06" y1="60.8" x2="95" y2="60.8" gradientUnits="userSpaceOnUse">
<stop stop-color="#CC074D"/>
<stop offset="0.275" stop-color="#E6194C"/>
<stop offset="0.405" stop-color="#F3224B"/>
<stop offset="0.625" stop-color="#F64850"/>
<stop offset="1" stop-color="#FA8958"/>
</linearGradient>
</defs>
</svg>
