<?xml version="1.0" encoding="utf-8"?>
<!-- Generator: Adobe Illustrator 19.0.0, SVG Export Plug-In . SVG Version: 6.00 Build 0)  -->
<svg version="1.1" id="Layer_1" xmlns="http://www.w3.org/2000/svg" xmlns:xlink="http://www.w3.org/1999/xlink" x="0px" y="0px"
	 width="200px" height="120px" viewBox="0 0 200 120" style="enable-background:new 0 0 200 120;" xml:space="preserve">
<style type="text/css">
	.st0{clip-path:url(#XMLID_86_);fill:url(#XMLID_87_);}
	.st1{clip-path:url(#XMLID_88_);fill:url(#XMLID_89_);}
	.st2{clip-path:url(#XMLID_91_);fill:url(#XMLID_92_);}
	.st3{clip-path:url(#XMLID_93_);fill:url(#XMLID_94_);}
	.st4{clip-path:url(#XMLID_95_);fill:url(#XMLID_97_);}
	.st5{clip-path:url(#XMLID_98_);fill:url(#XMLID_99_);}
	.st6{clip-path:url(#XMLID_100_);fill:url(#XMLID_101_);}
	.st7{clip-path:url(#XMLID_102_);fill:url(#XMLID_103_);}
	.st8{clip-path:url(#XMLID_104_);fill:url(#XMLID_105_);}
	.st9{clip-path:url(#XMLID_106_);fill:url(#XMLID_107_);}
	.st10{clip-path:url(#XMLID_108_);fill:url(#XMLID_109_);}
	.st11{fill:url(#XMLID_110_);}
	.st12{fill:none;}
	.st13{fill:#FFFFFF;}
	.st14{fill:url(#XMLID_111_);}
</style>
<g id="XMLID_149_">
	<g id="XMLID_200_">
		<defs>
			<path id="XMLID_201_" d="M107.4,59H81.3l-13-22.6l13-22.6h26.1l13,22.6L107.4,59z M81.4,58.7h25.8l12.9-22.3l-12.9-22.3H81.4
				L68.6,36.4L81.4,58.7z"/>
		</defs>
		<clipPath id="XMLID_86_">
			<use xlink:href="#XMLID_201_"  style="overflow:visible;"/>
		</clipPath>
		
			<linearGradient id="XMLID_87_" gradientUnits="userSpaceOnUse" x1="-214.6123" y1="246.7015" x2="-214.2415" y2="246.7015" gradientTransform="matrix(140.6711 0 0 -140.6711 30257.9785 34740.1563)">
			<stop  offset="0" style="stop-color:#57C8F4"/>
			<stop  offset="0.2708" style="stop-color:#E30A8C"/>
			<stop  offset="0.6364" style="stop-color:#00A64F"/>
			<stop  offset="0.9966" style="stop-color:#FAAC1A"/>
			<stop  offset="1" style="stop-color:#FAAC1A"/>
		</linearGradient>
		<rect id="XMLID_83_" x="68.2" y="13.8" class="st0" width="52.2" height="45.2"/>
	</g>
	<g id="XMLID_195_">
		<defs>
			<path id="XMLID_196_" d="M106.5,60.3l-26.8-1.4L67.5,35l14.6-22.5l26.8,1.4l12.2,24L106.5,60.3z M79.8,58.7l26.5,1.4l14.5-22.3
				l-12.1-23.7l-26.5-1.4L67.8,35L79.8,58.7z"/>
		</defs>
		<clipPath id="XMLID_88_">
			<use xlink:href="#XMLID_196_"  style="overflow:visible;"/>
		</clipPath>
		
			<linearGradient id="XMLID_89_" gradientUnits="userSpaceOnUse" x1="-214.6144" y1="246.71" x2="-214.2436" y2="246.71" gradientTransform="matrix(144.8013 0 0 -144.8013 31143.9082 35760.3164)">
			<stop  offset="0" style="stop-color:#57C8F4"/>
			<stop  offset="0.2708" style="stop-color:#E30A8C"/>
			<stop  offset="0.6364" style="stop-color:#00A64F"/>
			<stop  offset="0.9966" style="stop-color:#FAAC1A"/>
			<stop  offset="1" style="stop-color:#FAAC1A"/>
		</linearGradient>
		<rect id="XMLID_80_" x="67.5" y="12.4" class="st1" width="53.7" height="47.9"/>
	</g>
	<g id="XMLID_190_">
		<defs>
			<path id="XMLID_191_" d="M105.6,61.7L78,58.8L66.8,33.5L83,11.1l27.6,2.9l11.3,25.3L105.6,61.7z M78.2,58.5l27.2,2.9l16.1-22.2
				l-11.1-25l-27.2-2.9L67.1,33.5L78.2,58.5z"/>
		</defs>
		<clipPath id="XMLID_91_">
			<use xlink:href="#XMLID_191_"  style="overflow:visible;"/>
		</clipPath>
		
			<linearGradient id="XMLID_92_" gradientUnits="userSpaceOnUse" x1="-214.6162" y1="246.7175" x2="-214.2454" y2="246.7175" gradientTransform="matrix(148.6343 0 0 -148.6343 31966.084 36707.0664)">
			<stop  offset="0" style="stop-color:#57C8F4"/>
			<stop  offset="0.2708" style="stop-color:#E30A8C"/>
			<stop  offset="0.6364" style="stop-color:#00A64F"/>
			<stop  offset="0.9966" style="stop-color:#FAAC1A"/>
			<stop  offset="1" style="stop-color:#FAAC1A"/>
		</linearGradient>
		<rect id="XMLID_77_" x="66.8" y="11.1" class="st2" width="55.1" height="50.6"/>
	</g>
	<g id="XMLID_185_">
		<defs>
			<path id="XMLID_186_" d="M104.5,63l-28.2-4.5L66.1,31.9l18-22.2l28.2,4.5l10.2,26.7L104.5,63z M76.5,58.3l27.9,4.4l17.8-21.9
				l-10.1-26.4L84.2,10L66.4,32L76.5,58.3z"/>
		</defs>
		<clipPath id="XMLID_93_">
			<use xlink:href="#XMLID_186_"  style="overflow:visible;"/>
		</clipPath>
		
			<linearGradient id="XMLID_94_" gradientUnits="userSpaceOnUse" x1="-214.6178" y1="246.724" x2="-214.247" y2="246.724" gradientTransform="matrix(152.1535 0 0 -152.1535 32720.9551 37576.3086)">
			<stop  offset="0" style="stop-color:#57C8F4"/>
			<stop  offset="0.2708" style="stop-color:#E30A8C"/>
			<stop  offset="0.6364" style="stop-color:#00A64F"/>
			<stop  offset="0.9966" style="stop-color:#FAAC1A"/>
			<stop  offset="1" style="stop-color:#FAAC1A"/>
		</linearGradient>
		<rect id="XMLID_74_" x="66.1" y="9.7" class="st3" width="56.4" height="53.3"/>
	</g>
	<g id="XMLID_180_">
		<defs>
			<path id="XMLID_181_" d="M103.4,64.4l-28.8-6.1l-9.1-28L85.2,8.4l28.8,6.1l9.1,28L103.4,64.4z M74.8,58l28.5,6.1l19.5-21.6
				l-9-27.7L85.3,8.7L65.8,30.3L74.8,58z"/>
		</defs>
		<clipPath id="XMLID_95_">
			<use xlink:href="#XMLID_181_"  style="overflow:visible;"/>
		</clipPath>
		
			<linearGradient id="XMLID_97_" gradientUnits="userSpaceOnUse" x1="-214.6192" y1="246.7297" x2="-214.2484" y2="246.7297" gradientTransform="matrix(155.3181 0 0 -155.3181 33399.7617 38357.9648)">
			<stop  offset="0" style="stop-color:#57C8F4"/>
			<stop  offset="0.2708" style="stop-color:#E30A8C"/>
			<stop  offset="0.6364" style="stop-color:#00A64F"/>
			<stop  offset="0.9966" style="stop-color:#FAAC1A"/>
			<stop  offset="1" style="stop-color:#FAAC1A"/>
		</linearGradient>
		<rect id="XMLID_71_" x="65.5" y="8.4" class="st4" width="57.6" height="56"/>
	</g>
	<g id="XMLID_175_">
		<defs>
			<path id="XMLID_176_" d="M102.2,65.7l-29.3-7.9L65,28.5L86.5,7.1l29.3,7.9l7.9,29.3L102.2,65.7z M73.1,57.6l29,7.8l21.2-21.2
				l-7.8-29l-29-7.8L65.3,28.6L73.1,57.6z"/>
		</defs>
		<clipPath id="XMLID_98_">
			<use xlink:href="#XMLID_176_"  style="overflow:visible;"/>
		</clipPath>
		
			<linearGradient id="XMLID_99_" gradientUnits="userSpaceOnUse" x1="-214.6204" y1="246.7344" x2="-214.2495" y2="246.7344" gradientTransform="matrix(158.097 0 0 -158.097 33995.8359 39044.3516)">
			<stop  offset="0" style="stop-color:#57C8F4"/>
			<stop  offset="0.2708" style="stop-color:#E30A8C"/>
			<stop  offset="0.6364" style="stop-color:#00A64F"/>
			<stop  offset="0.9966" style="stop-color:#FAAC1A"/>
			<stop  offset="1" style="stop-color:#FAAC1A"/>
		</linearGradient>
		<rect id="XMLID_68_" x="65" y="7.1" class="st5" width="58.6" height="58.6"/>
	</g>
	<g id="XMLID_170_">
		<defs>
			<path id="XMLID_171_" d="M100.8,67l-29.8-9.7l-6.5-30.6L87.8,5.8l29.8,9.7l6.5,30.6L100.8,67z M71.3,57.1l29.4,9.6l23-20.7
				l-6.4-30.3L87.9,6.1l-23,20.7L71.3,57.1z"/>
		</defs>
		<clipPath id="XMLID_100_">
			<use xlink:href="#XMLID_171_"  style="overflow:visible;"/>
		</clipPath>
		
			<linearGradient id="XMLID_101_" gradientUnits="userSpaceOnUse" x1="-214.6213" y1="246.7383" x2="-214.2505" y2="246.7383" gradientTransform="matrix(160.4505 0 0 -160.4505 34500.6641 39625.668)">
			<stop  offset="0" style="stop-color:#57C8F4"/>
			<stop  offset="0.2708" style="stop-color:#E30A8C"/>
			<stop  offset="0.6364" style="stop-color:#00A64F"/>
			<stop  offset="0.9966" style="stop-color:#FAAC1A"/>
			<stop  offset="1" style="stop-color:#FAAC1A"/>
		</linearGradient>
		<rect id="XMLID_65_" x="64.6" y="5.8" class="st6" width="59.5" height="61.2"/>
	</g>
	<g id="XMLID_165_">
		<defs>
			<path id="XMLID_166_" d="M99.4,68.2L99.4,68.2L69.3,56.7l-5-31.8L89.3,4.5l0.1,0l30,11.5l5,31.8L99.4,68.2z M69.5,56.5l29.8,11.4
				l24.8-20.1l-5-31.5L89.3,4.9L64.5,24.9L69.5,56.5z"/>
		</defs>
		<clipPath id="XMLID_102_">
			<use xlink:href="#XMLID_166_"  style="overflow:visible;"/>
		</clipPath>
		
			<linearGradient id="XMLID_103_" gradientUnits="userSpaceOnUse" x1="-214.6221" y1="246.7414" x2="-214.2513" y2="246.7414" gradientTransform="matrix(162.3453 0 0 -162.3453 34907.0938 40093.6797)">
			<stop  offset="0" style="stop-color:#57C8F4"/>
			<stop  offset="0.2708" style="stop-color:#E30A8C"/>
			<stop  offset="0.6364" style="stop-color:#00A64F"/>
			<stop  offset="0.9966" style="stop-color:#FAAC1A"/>
			<stop  offset="1" style="stop-color:#FAAC1A"/>
		</linearGradient>
		<rect id="XMLID_62_" x="64.2" y="4.5" class="st7" width="60.2" height="63.7"/>
	</g>
	<g id="XMLID_160_">
		<defs>
			<path id="XMLID_161_" d="M97.8,69.4L67.4,55.9l-3.5-33.1L90.8,3.3l30.4,13.5l3.5,33.1L97.8,69.4z M67.7,55.7l30.1,13.4l26.6-19.3
				L120.9,17L90.9,3.6L64.2,23L67.7,55.7z"/>
		</defs>
		<clipPath id="XMLID_104_">
			<use xlink:href="#XMLID_161_"  style="overflow:visible;"/>
		</clipPath>
		
			<linearGradient id="XMLID_105_" gradientUnits="userSpaceOnUse" x1="-214.6226" y1="246.7436" x2="-214.2518" y2="246.7436" gradientTransform="matrix(163.7524 0 0 -163.7524 35208.918 40441.2344)">
			<stop  offset="0" style="stop-color:#57C8F4"/>
			<stop  offset="0.2708" style="stop-color:#E30A8C"/>
			<stop  offset="0.6364" style="stop-color:#00A64F"/>
			<stop  offset="0.9966" style="stop-color:#FAAC1A"/>
			<stop  offset="1" style="stop-color:#FAAC1A"/>
		</linearGradient>
		<rect id="XMLID_59_" x="63.9" y="3.3" class="st8" width="60.7" height="66.1"/>
	</g>
	<g id="XMLID_155_">
		<defs>
			<path id="XMLID_156_" d="M96.1,70.6L65.6,55l0-0.1l-1.8-34.1L92.5,2.2L123,17.7l0,0.1l1.8,34.1L96.1,70.6z M65.9,54.9l30.2,15.4
				l28.5-18.5l-1.8-33.9L92.5,2.5L64.1,21L65.9,54.9z"/>
		</defs>
		<clipPath id="XMLID_106_">
			<use xlink:href="#XMLID_156_"  style="overflow:visible;"/>
		</clipPath>
		
			<linearGradient id="XMLID_107_" gradientUnits="userSpaceOnUse" x1="-214.623" y1="246.7449" x2="-214.2521" y2="246.7449" gradientTransform="matrix(164.6261 0 0 -164.6261 35396.3281 40657.0391)">
			<stop  offset="0" style="stop-color:#57C8F4"/>
			<stop  offset="0.2708" style="stop-color:#E30A8C"/>
			<stop  offset="0.6364" style="stop-color:#00A64F"/>
			<stop  offset="0.9966" style="stop-color:#FAAC1A"/>
			<stop  offset="1" style="stop-color:#FAAC1A"/>
		</linearGradient>
		<rect id="XMLID_56_" x="63.8" y="2.2" class="st9" width="61.1" height="68.4"/>
	</g>
	<g id="XMLID_150_">
		<defs>
			<path id="XMLID_151_" d="M94.3,71.7L63.7,54V18.7L94.3,1.1l30.6,17.7V54L94.3,71.7z M64,53.9l30.3,17.5l30.3-17.5v-35L94.3,1.4
				L64,18.9V53.9z"/>
		</defs>
		<clipPath id="XMLID_108_">
			<use xlink:href="#XMLID_151_"  style="overflow:visible;"/>
		</clipPath>
		
			<linearGradient id="XMLID_109_" gradientUnits="userSpaceOnUse" x1="-214.6231" y1="246.7454" x2="-214.2522" y2="246.7454" gradientTransform="matrix(164.9374 0 0 -164.9374 35463.1016 40733.9297)">
			<stop  offset="0" style="stop-color:#57C8F4"/>
			<stop  offset="0.2708" style="stop-color:#E30A8C"/>
			<stop  offset="0.6364" style="stop-color:#00A64F"/>
			<stop  offset="0.9966" style="stop-color:#FAAC1A"/>
			<stop  offset="1" style="stop-color:#FAAC1A"/>
		</linearGradient>
		<rect id="XMLID_53_" x="63.7" y="1.1" class="st10" width="61.2" height="70.6"/>
	</g>
</g>
<g id="XMLID_143_">
	
		<linearGradient id="XMLID_110_" gradientUnits="userSpaceOnUse" x1="-214.3763" y1="246.015" x2="-214.0054" y2="246.015" gradientTransform="matrix(-6.9691 -138.9228 -138.9228 6.9691 32705.3594 -31379.9922)">
		<stop  offset="0" style="stop-color:#007CC4"/>
		<stop  offset="0.3417" style="stop-color:#5AC4D0"/>
		<stop  offset="0.5396" style="stop-color:#C3DC83"/>
		<stop  offset="0.6703" style="stop-color:#FCEE23"/>
		<stop  offset="1" style="stop-color:#FFF572"/>
	</linearGradient>
	<polygon id="XMLID_50_" class="st11" points="6.4,120 40.5,100.3 12.5,83.4 11.5,82.7 38.8,67.1 35.7,63.4 1.6,83.1 29.7,100.1 
		30.6,100.7 3.3,116.3 	"/>
	<g id="XMLID_144_">
		<path id="XMLID_49_" class="st12" d="M129.8,82.3c-0.1-0.2-0.3-0.3-0.4-0.4c-0.4-0.1-0.9-0.1-1.3,0.1c-0.4,0.2-0.8,0.5-1.1,1
			c-0.3,0.5-0.6,1-0.9,1.6c-0.3,0.6-0.5,1.2-0.6,1.9c-0.1,0.6-0.2,1.2-0.3,1.8c0,0.6,0,1.1,0.1,1.5c0.1,0.5,0.3,0.8,0.6,1.1
			c0.3,0.3,0.5,0.4,0.8,0.4c0,0,0,0,0.1,0c0.5,0,1-0.4,1.4-1.1c0.4-0.8,0.9-2,1.3-3.6v0c0.1-0.2,0.1-0.4,0.2-0.6
			c0-0.2,0.1-0.4,0.2-0.7c0.1-0.4,0.2-0.8,0.2-1.2c0-0.4,0-0.7,0-1C130,82.8,130,82.5,129.8,82.3z"/>
		<path id="XMLID_48_" class="st12" d="M160.1,82.3c-0.1-0.2-0.2-0.3-0.4-0.4c-0.4-0.1-0.9-0.1-1.3,0.1c-0.4,0.2-0.8,0.5-1.1,1
			c-0.3,0.5-0.6,1-0.9,1.6c-0.3,0.6-0.5,1.2-0.6,1.9c-0.1,0.6-0.2,1.2-0.3,1.8c0,0.6,0,1.1,0.1,1.5c0.1,0.5,0.3,0.8,0.6,1.1
			c0.3,0.3,0.5,0.4,0.8,0.4c0,0,0,0,0.1,0c0.5,0,1-0.4,1.4-1.1c0.5-0.8,0.9-2,1.3-3.6v0c0-0.2,0.1-0.4,0.1-0.6
			c0-0.2,0.1-0.4,0.2-0.6h0c0.1-0.4,0.2-0.8,0.2-1.2c0-0.4,0-0.7,0-1C160.2,82.8,160.2,82.5,160.1,82.3z"/>
		<path id="XMLID_47_" class="st12" d="M100.2,85.7c0.4-0.5,0.7-1.1,0.8-1.7c0.2-0.6,0.2-1.2,0.1-1.9c-0.1-0.4-0.2-0.7-0.5-0.9
			c-0.3-0.2-0.6-0.1-1,0.1c-0.4,0.2-0.7,0.5-1.1,1c-0.3,0.4-0.6,0.9-0.9,1.5c-0.3,0.6-0.5,1.2-0.7,1.8c-0.2,0.7-0.3,1.3-0.3,2
			c0.8-0.1,1.5-0.4,2.1-0.7C99.3,86.6,99.8,86.2,100.2,85.7z"/>
	</g>
</g>
<g id="XMLID_90_">
	<path id="XMLID_140_" class="st13" d="M60.2,103v-2.7h1.9c0.1,0,0.2,0,0.2,0c0.1,0,0.1,0,0.1,0.1c0.1,0,0.1,0.1,0.1,0.2
		c0,0.1,0,0.2,0,0.3v0.5c0,0.1,0,0.2,0,0.2c0,0,0,0.1,0,0.1c0,0.1-0.1,0.1-0.2,0.2c-0.1,0-0.2,0.1-0.3,0.1h-0.2l1,1h-0.6l-0.9-1
		h-0.7v1H60.2z M62,101.7c0.1,0,0.2,0,0.2-0.1c0,0,0.1-0.1,0.1-0.2v-0.3c0-0.1,0-0.2-0.1-0.2c0,0-0.1-0.1-0.2-0.1h-1.4v0.8H62z"/>
	<path id="XMLID_137_" class="st13" d="M66.3,102.5c0,0.1,0,0.2,0,0.3c0,0.1,0,0.1-0.1,0.2c0,0-0.1,0.1-0.2,0.1c-0.1,0-0.2,0-0.2,0
		h-1.6c-0.1,0-0.2,0-0.2,0c-0.1,0-0.1-0.1-0.2-0.1c0,0-0.1-0.1-0.1-0.2c0-0.1,0-0.2,0-0.3V101c0-0.2,0-0.4,0.1-0.5
		c0.1-0.1,0.2-0.1,0.4-0.1h1.6c0.2,0,0.3,0,0.4,0.1c0.1,0.1,0.1,0.2,0.1,0.5V102.5z M65.9,100.8H64v1.8h1.9V100.8z"/>
	<path id="XMLID_134_" class="st13" d="M67.3,100.4h1.9c0.1,0,0.2,0,0.2,0c0.1,0,0.1,0,0.1,0.1c0.1,0,0.1,0.1,0.1,0.2
		c0,0.1,0,0.2,0,0.3v0.5c0,0.1,0,0.2,0,0.2c0,0,0,0.1,0,0.1c0,0.1-0.1,0.1-0.2,0.2c-0.1,0-0.2,0.1-0.3,0.1h-1.5v1h-0.4V100.4z
		 M69.1,101.7c0.1,0,0.2,0,0.2-0.1c0,0,0.1-0.1,0.1-0.2v-0.3c0-0.1,0-0.2-0.1-0.2c0,0-0.1-0.1-0.2-0.1h-1.4v0.8H69.1z"/>
	<rect id="XMLID_40_" x="70.7" y="100.4" class="st13" width="0.4" height="2.7"/>
	<path id="XMLID_39_" class="st13" d="M74.4,101.4v-0.6h-1.9v1.8h1.9V102l0.4,0.1v0.4c0,0.1,0,0.2,0,0.3c0,0.1,0,0.1-0.1,0.2
		c0,0-0.1,0.1-0.2,0.1c-0.1,0-0.2,0-0.2,0h-1.6c-0.1,0-0.2,0-0.2,0c-0.1,0-0.1-0.1-0.2-0.1c0,0-0.1-0.1-0.1-0.2c0-0.1,0-0.2,0-0.3
		V101c0-0.2,0-0.4,0.1-0.5c0.1-0.1,0.2-0.1,0.4-0.1h1.6c0.2,0,0.3,0,0.4,0.1c0.1,0.1,0.1,0.2,0.1,0.5v0.3L74.4,101.4z"/>
	<path id="XMLID_129_" class="st13" d="M76.7,100.4h0.5l1.3,2.7H78l-0.3-0.7h-1.6l-0.3,0.7h-0.4L76.7,100.4z M77.5,102l-0.6-1.3
		l-0.6,1.3H77.5z"/>
	<polygon id="XMLID_36_" class="st13" points="79.1,100.4 79.5,100.4 79.5,102.6 81.3,102.6 81.3,103 79.1,103 	"/>
	<path id="XMLID_125_" class="st13" d="M83.5,100.4h1.9c0.1,0,0.2,0,0.2,0c0.1,0,0.1,0,0.1,0.1c0.1,0,0.1,0.1,0.1,0.2
		c0,0.1,0,0.2,0,0.3v0.5c0,0.1,0,0.2,0,0.2c0,0,0,0.1,0,0.1c0,0.1-0.1,0.1-0.2,0.2c-0.1,0-0.2,0.1-0.3,0.1h-1.5v1h-0.4V100.4z
		 M85.3,101.7c0.1,0,0.2,0,0.2-0.1c0,0,0.1-0.1,0.1-0.2v-0.3c0-0.1,0-0.2-0.1-0.2c0,0-0.1-0.1-0.2-0.1h-1.4v0.8H85.3z"/>
	<path id="XMLID_122_" class="st13" d="M87.8,100.4h0.5l1.3,2.7h-0.5l-0.3-0.7h-1.6l-0.3,0.7h-0.4L87.8,100.4z M88.6,102l-0.6-1.3
		l-0.6,1.3H88.6z"/>
	<path id="XMLID_119_" class="st13" d="M90.2,103v-2.7h1.9c0.1,0,0.2,0,0.2,0c0.1,0,0.1,0,0.1,0.1c0.1,0,0.1,0.1,0.1,0.2
		c0,0.1,0,0.2,0,0.3v0.5c0,0.1,0,0.2,0,0.2c0,0,0,0.1,0,0.1c0,0.1-0.1,0.1-0.2,0.2c-0.1,0-0.2,0.1-0.3,0.1h-0.2l1,1h-0.6l-0.9-1
		h-0.7v1H90.2z M92,101.7c0.1,0,0.2,0,0.2-0.1c0,0,0.1-0.1,0.1-0.2v-0.3c0-0.1,0-0.2-0.1-0.2c0,0-0.1-0.1-0.2-0.1h-1.4v0.8H92z"/>
	<path id="XMLID_116_" class="st13" d="M94.6,100.4h0.5l1.3,2.7H96l-0.3-0.7H94l-0.3,0.7h-0.4L94.6,100.4z M95.5,102l-0.6-1.3
		l-0.6,1.3H95.5z"/>
	<path id="XMLID_113_" class="st13" d="M97,100.4h1.7c0.2,0,0.3,0,0.4,0c0.1,0,0.2,0.1,0.3,0.1c0.1,0.1,0.2,0.2,0.3,0.4
		c0.1,0.2,0.1,0.4,0.1,0.6v0.4c0,0.2,0,0.3,0,0.4c0,0.1,0,0.2-0.1,0.3c-0.1,0.1-0.1,0.2-0.2,0.3c-0.1,0.1-0.2,0.1-0.3,0.1
		c-0.1,0-0.2,0-0.4,0H97V100.4z M98.7,102.6c0.1,0,0.2,0,0.2,0c0.1,0,0.1,0,0.2-0.1c0.1-0.1,0.1-0.1,0.2-0.2c0-0.1,0.1-0.2,0.1-0.4
		v-0.5c0-0.1,0-0.2,0-0.2c0-0.1,0-0.1-0.1-0.2c0-0.1-0.1-0.2-0.2-0.2c-0.1,0-0.2-0.1-0.4-0.1h-1.2v1.8H98.7z"/>
	<rect id="XMLID_25_" x="100.7" y="100.4" class="st13" width="0.4" height="2.7"/>
	<path id="XMLID_24_" class="st13" d="M104.2,101.1v-0.3h-1.6v0.7h1.6c0.1,0,0.2,0,0.2,0c0.1,0,0.1,0.1,0.2,0.1c0,0,0.1,0.1,0.1,0.2
		c0,0.1,0,0.2,0,0.3v0.4c0,0.1,0,0.2,0,0.3c0,0.1,0,0.1-0.1,0.2c0,0-0.1,0.1-0.2,0.1c-0.1,0-0.1,0-0.2,0h-1.5c-0.1,0-0.2,0-0.2,0
		c-0.1,0-0.1-0.1-0.2-0.1c0,0-0.1-0.1-0.1-0.2c0-0.1,0-0.2,0-0.3v-0.1l0.4-0.1v0.4h1.8v-0.7h-1.6c-0.2,0-0.3,0-0.4-0.1
		c-0.1-0.1-0.1-0.2-0.1-0.5V101c0-0.2,0-0.4,0.1-0.5c0.1-0.1,0.2-0.1,0.4-0.1h1.4c0.1,0,0.2,0,0.2,0c0.1,0,0.1,0.1,0.2,0.1
		c0,0,0.1,0.1,0.1,0.2c0,0.1,0,0.2,0,0.3v0.1L104.2,101.1z"/>
	<polygon id="XMLID_23_" class="st13" points="105.6,100.4 107.9,100.4 107.9,100.8 106,100.8 106,101.5 107.2,101.5 107.2,101.9 
		106,101.9 106,102.6 107.9,102.6 107.9,103 105.6,103 	"/>
	<polygon id="XMLID_22_" class="st13" points="113.3,100.4 113.3,103 112.9,103 112.9,101 111.8,102.6 111.7,102.6 110.6,101 
		110.6,103 110.2,103 110.2,100.4 110.7,100.4 111.8,102 112.8,100.4 	"/>
	<path id="XMLID_21_" class="st13" d="M114.7,102.6h1.8v-2.2h0.4v2.1c0,0.1,0,0.2,0,0.3c0,0.1,0,0.1-0.1,0.2c0,0-0.1,0.1-0.2,0.1
		c-0.1,0-0.2,0-0.2,0h-1.5c-0.1,0-0.2,0-0.2,0c-0.1,0-0.1-0.1-0.2-0.1c0,0-0.1-0.1-0.1-0.2c0-0.1,0-0.2,0-0.3v-2.1h0.4V102.6z"/>
	<rect id="XMLID_20_" x="117.9" y="100.4" class="st13" width="0.4" height="2.7"/>
	<polygon id="XMLID_19_" class="st13" points="120.7,100.4 121,100.4 123,102.4 123,100.4 123.4,100.4 123.4,103 123.1,103 
		121.1,101.1 121.1,103 120.7,103 	"/>
	<polygon id="XMLID_18_" class="st13" points="124.5,100.4 126.8,100.4 126.8,100.8 124.9,100.8 124.9,101.5 126,101.5 126,101.9 
		124.9,101.9 124.9,102.6 126.8,102.6 126.8,103 124.5,103 	"/>
	<rect id="XMLID_17_" x="129.1" y="101.6" class="st13" width="1.1" height="0.4"/>
	<polygon id="XMLID_16_" class="st13" points="132.2,100.4 132.6,100.4 133.7,102.6 134.7,100.4 135.1,100.4 133.8,103 133.5,103 	
		"/>
	<rect id="XMLID_15_" x="135.7" y="100.4" class="st13" width="0.4" height="2.7"/>
	<polygon id="XMLID_14_" class="st13" points="137.2,100.4 139.5,100.4 139.5,100.8 137.6,100.8 137.6,101.5 138.7,101.5 
		138.7,101.9 137.6,101.9 137.6,102.6 139.5,102.6 139.5,103 137.2,103 	"/>
	<polygon id="XMLID_13_" class="st13" points="141.7,103 141.3,103 141.3,100.8 140.2,100.8 140.2,100.4 142.8,100.4 142.8,100.8 
		141.7,100.8 	"/>
	<polygon id="XMLID_12_" class="st13" points="144.9,100.4 145.2,100.4 147.3,102.4 147.3,100.4 147.7,100.4 147.7,103 147.4,103 
		145.3,101.1 145.3,103 144.9,103 	"/>
	<path id="XMLID_96_" class="st13" d="M149.6,100.4h0.5l1.3,2.7h-0.5l-0.3-0.7H149l-0.3,0.7h-0.4L149.6,100.4z M150.5,102l-0.6-1.3
		l-0.6,1.3H150.5z"/>
	<polygon id="XMLID_9_" class="st13" points="155.1,100.4 155.1,103 154.7,103 154.7,101 153.6,102.6 153.5,102.6 152.5,101 
		152.5,103 152,103 152,100.4 152.6,100.4 153.6,102 154.6,100.4 	"/>
	<polygon id="XMLID_8_" class="st13" points="46.9,103 46.4,103 46.4,100.8 45.3,100.8 45.3,100.4 47.9,100.4 47.9,100.8 
		46.9,100.8 	"/>
	<polygon id="XMLID_7_" class="st13" points="48.7,100.4 49.1,100.4 49.1,101.5 51,101.5 51,100.4 51.4,100.4 51.4,103 51,103 
		51,101.9 49.1,101.9 49.1,103 48.7,103 	"/>
	<polygon id="XMLID_6_" class="st13" points="52.5,100.4 54.8,100.4 54.8,100.8 52.9,100.8 52.9,101.5 54,101.5 54,101.9 
		52.9,101.9 52.9,102.6 54.8,102.6 54.8,103 52.5,103 	"/>
	<polygon id="XMLID_5_" class="st13" points="58.3,103 57.9,103 57.9,100.8 56.8,100.8 56.8,100.4 59.4,100.4 59.4,100.8 
		58.3,100.8 	"/>
</g>
<linearGradient id="XMLID_111_" gradientUnits="userSpaceOnUse" x1="-214.7508" y1="247.1091" x2="-214.38" y2="247.1091" gradientTransform="matrix(305.2081 -185.5993 -185.5993 -305.2081 111474.4531 35670.0859)">
	<stop  offset="0" style="stop-color:#53C9F4"/>
	<stop  offset="0.2708" style="stop-color:#E5018C"/>
	<stop  offset="0.656" style="stop-color:#FBAB18"/>
	<stop  offset="1" style="stop-color:#00A651"/>
</linearGradient>
<path id="XMLID_85_" class="st14" d="M193.6,57.4c0,0-0.5-1.3-1.1-2.4c2.7,0.5,2.4,0.2,7.5,1.7c-10.1-12.7-20.4-8-24.4-5.4
	c-0.1-0.2-0.1-0.3-0.1-0.3l0-0.1c0.8-5.8,6.8-9.8,6.8-9.8h-3.8c0,0,1.4-1.2,3.4-4c-0.5,0-1,0-1.5,0c-11.9,0-10.6,9.2-10.2,11.8
	c-15.1-8.7-20,1.1-20.5,2.1c1-1,5.9-0.7,5.9-0.7s-0.3,1-1.6,2.6c6.4-1.9,10-0.9,13,0.4c0,0-10.4,3.6-9.2,10.6
	c0.2,1.3,0.8,2.6,0.8,2.6l2.1-1.9l1.2,1.9c0,0,4.1-10.1,9.8-10.9c0.2,0,0.3,0,0.3,0l0.4,2.5c0,0,0,0,0,0l0,0
	c0.7,4.7,0.6,8.9-0.1,12.6c0,0,0,0,0,0c0,0,0,0,0,0c-0.2,1.2-0.5,2.3-0.8,3.4l0,0c0,0-0.4,1.6-1.4,3.9c-0.8,1.9-3,7-5,9.7
	c-0.3,0.4-0.5,0.8-0.8,1.1c-0.3,0.4-0.5,0.6-0.6,0.8c-0.1,0.2-0.4,0.5-0.5,0.6c-0.1,0.1-0.3,0.2-0.3,0.2c0,0,0,0,0,0
	c-0.1,0-0.1-0.2-0.1-0.4c0,0,0,0,0,0c0-0.1,0-0.1,0-0.2c0,0,0,0,0,0c0-0.1,0-0.2,0-0.2l0,0c0.1-0.4,0.2-1,0.4-1.7
	c0.1-0.5,0.3-1.1,0.4-1.7c0.2-0.9,0.4-1.8,0.7-2.9c0.3-1,0.5-2.1,0.8-3.2c0.3-1.1,0.5-2.1,0.8-3.2c0.3-1,0.5-2,0.7-2.9
	c0.2-0.9,0.4-1.6,0.6-2.3c0.2-0.6,0.3-1.1,0.3-1.4c0.1-0.4,0.1-0.7,0.1-0.9c0-0.2-0.1-0.4-0.2-0.5c-0.1-0.1-0.3-0.2-0.5-0.3
	c-0.2,0-0.5-0.1-0.7-0.1c-0.5,0-0.9,0-1.1,0.1c-0.3,0.1-0.5,0.4-0.6,0.9c-0.2,0.6-0.3,1.3-0.6,2.1c-0.2,0.9-0.5,1.8-0.8,2.9
	c-0.3,1-0.6,2.1-0.9,3.3c-0.3,1.2-0.6,2.3-0.9,3.5c-0.7-1.2-1.7-1.8-3-1.8c-0.6,0-1.2,0.2-1.8,0.5c-0.6,0.4-1.2,0.9-1.7,1.5
	c-0.5,0.6-1,1.4-1.4,2.2c-0.1,0.2-0.2,0.5-0.3,0.8c0,0-0.1,0.1-0.1,0.1l-1.2,3c-0.1,0.3-0.3,0.7-0.5,1.1c-0.2,0.4-0.5,0.8-0.8,1.2
	c-0.3,0.4-0.6,0.8-0.9,1.1c-0.3,0.3-0.6,0.5-0.8,0.6c-0.2,0.1-0.3,0.1-0.4,0.1c-0.1,0-0.3-0.1-0.4-0.2c-0.1-0.1-0.2-0.3-0.2-0.6
	c0-0.3,0-0.7,0.2-1.3c0.2-0.7,0.3-1.4,0.4-1.9c0.1-0.5,0.2-1,0.3-1.4c0.1-0.4,0.2-0.8,0.3-1.2c0.1-0.4,0.2-0.8,0.3-1.2
	c0.2-0.7,0.2-1.3,0.1-1.9c-0.1-0.6-0.3-1-0.6-1.4c-0.3-0.4-0.6-0.6-1-0.8c-0.4-0.2-0.8-0.2-1.2-0.2c-0.3,0-0.6,0.1-0.9,0.3
	c-0.3,0.2-0.5,0.4-0.8,0.7c-0.3,0.3-0.5,0.7-0.7,1c-0.2,0.4-0.4,0.8-0.6,1.2c0.1-0.6,0.1-1.2,0-1.7c-0.1-0.5-0.3-0.9-0.5-1.3
	c-0.3-0.3-0.6-0.6-0.9-0.7c-0.4-0.1-0.7-0.1-1.1,0.1c-0.3,0.2-0.7,0.4-1,0.8c-0.3,0.3-0.6,0.7-0.9,1.2c-0.3,0.5-0.5,1-0.7,1.5
	c-0.2,0.5-0.4,1-0.6,1.5c0,0-0.1,0.1-0.1,0.1l-1.2,3c-0.1,0.3-0.3,0.7-0.5,1c-0.2,0.4-0.5,0.8-0.7,1.1c-0.3,0.4-0.6,0.7-0.8,1
	c-0.3,0.3-0.6,0.5-0.8,0.6c-0.1,0-0.3,0-0.5-0.1c-0.2-0.1-0.3-0.2-0.4-0.4c-0.1-0.2-0.2-0.4-0.3-0.6c0-0.2,0-0.5,0-0.7
	c0.1-0.5,0.2-1,0.4-1.7c0.1-0.6,0.3-1.3,0.5-2c0.2-0.7,0.3-1.4,0.5-2c0.2-0.7,0.3-1.3,0.4-1.8c0.1-0.4,0.1-0.7,0.1-0.9
	c0-0.2-0.1-0.4-0.2-0.5c-0.1-0.1-0.3-0.2-0.5-0.3c-0.2,0-0.4-0.1-0.7-0.1c-0.5-0.1-0.9,0-1.1,0.1c-0.3,0.1-0.5,0.4-0.6,0.9
	c0,0.1-0.1,0.1-0.1,0.2c0,0.1,0,0.1-0.1,0.2c-0.3-0.7-0.8-1.2-1.3-1.5c-0.5-0.4-1.1-0.5-1.9-0.6c-0.6,0-1.2,0.2-1.8,0.5
	c-0.6,0.4-1.1,0.9-1.7,1.5c-0.5,0.6-1,1.4-1.4,2.2c-0.4,0.8-0.8,1.7-1,2.7c-0.1,0.4-0.2,0.8-0.3,1.2l0,0c-0.1,0.3-0.3,0.7-0.5,1
	c-0.2,0.4-0.5,0.8-0.7,1.1c-0.3,0.4-0.6,0.7-0.9,1c-0.3,0.3-0.6,0.5-0.8,0.6c-0.1,0-0.3,0-0.4-0.1c-0.1-0.1-0.3-0.2-0.3-0.4
	c-0.1-0.2-0.2-0.4-0.2-0.6c0-0.2,0-0.5,0-0.7c0.1-0.2,0.2-0.6,0.3-1.3c0.1-0.6,0.3-1.4,0.5-2.2c0.2-0.9,0.4-1.8,0.7-2.9
	c0.2-1,0.5-2.1,0.8-3.2c0.3-1.1,0.5-2.1,0.8-3.2c0.2-1,0.5-2,0.7-2.9c0.2-0.9,0.4-1.6,0.5-2.3c0.1-0.6,0.3-1.1,0.3-1.4
	c0.1-0.4,0.1-0.7,0.1-0.9c0-0.2-0.1-0.4-0.2-0.5c-0.1-0.1-0.3-0.2-0.5-0.3c-0.2,0-0.5-0.1-0.7-0.1c-0.5,0-0.8,0-1.1,0.1
	c-0.3,0.1-0.5,0.4-0.6,0.9c-0.2,0.8-0.5,1.9-0.8,3.1c-0.3,1.3-0.7,2.7-1.1,4.2c-0.4,1.5-0.8,3.1-1.2,4.7c-0.3,1.2-0.5,2.3-0.8,3.4
	l-1.4,3.5c-0.2,0.5-0.5,0.9-0.7,1.3c-0.2,0.4-0.5,0.7-0.7,1c-0.2,0.3-0.4,0.4-0.6,0.6c-0.2,0.1-0.3,0.2-0.3,0.2
	c-0.3,0.1-0.5-0.1-0.6-0.7c-0.1-0.5,0-1.4,0.3-2.6c0.1-0.4,0.2-0.7,0.3-1c0.1-0.3,0.2-0.7,0.2-1c0-0.4,0-0.7,0-1
	c-0.1-0.3-0.2-0.7-0.4-1c-0.2-0.4-0.5-0.9-0.9-1.4c-0.4-0.6-0.8-1.2-1.2-1.7c0,0,0,0,0-0.1c-0.2-0.3-0.3-0.5-0.4-0.6
	c-0.1-0.2-0.1-0.3-0.1-0.5c0-0.2,0-0.3,0-0.5c0-0.2,0-0.4,0-0.6c-0.1-0.3-0.2-0.6-0.3-0.8c-0.1-0.3-0.3-0.5-0.5-0.6
	c-0.2-0.1-0.4-0.2-0.7-0.1c-0.3,0-0.5,0.2-0.8,0.6c-0.2,0.3-0.4,0.5-0.5,0.8c-0.1,0.3-0.2,0.5-0.2,0.8c0,0.2,0,0.4,0,0.6
	c0,0.2,0.1,0.3,0.1,0.4c0,0.2,0.1,0.4,0.2,0.6c0.1,0.2,0.2,0.4,0.3,0.6c0.2,0.4,0.2,0.9,0.1,1.5c-0.1,0.5-0.3,1-0.5,1.6
	c0,0-0.1,0.1-0.1,0.1c-0.4,1.1-0.8,2.1-1.3,3c-0.5,0.9-1,1.7-1.5,2.4c-0.5,0.7-1,1.3-1.6,1.8c-0.6,0.5-1.1,0.8-1.7,0.9
	c-0.2,0.1-0.5,0.1-0.8,0.1c-0.3,0-0.6-0.1-0.9-0.2c-0.3-0.1-0.5-0.4-0.8-0.7c-0.2-0.3-0.4-0.7-0.5-1.3c-0.1-0.3-0.1-0.6-0.2-0.9
	c0.9-0.1,1.7-0.3,2.6-0.6c0.8-0.3,1.6-0.8,2.3-1.4c0.7-0.6,1.2-1.3,1.6-2.1c0.4-0.8,0.6-1.8,0.6-2.8c0-0.5-0.1-0.9-0.3-1.4
	c-0.2-0.5-0.4-0.9-0.7-1.2c-0.3-0.4-0.7-0.6-1.2-0.8c-0.5-0.2-1.1-0.3-1.7-0.2c-1,0.1-1.9,0.5-2.9,1.2c-0.9,0.7-1.8,1.6-2.5,2.7
	c-0.3,0.5-0.6,1-0.8,1.6c0,0,0,0,0,0l0,0.1c-0.1,0.2-0.2,0.4-0.3,0.7l-0.9,2.3c-0.1,0.3-0.3,0.7-0.5,1.1c-0.2,0.4-0.5,0.8-0.8,1.2
	c-0.3,0.4-0.6,0.8-0.9,1.1c-0.3,0.3-0.6,0.5-0.9,0.6c-0.1,0.1-0.3,0.1-0.4,0.1c-0.2,0-0.3-0.1-0.4-0.2c-0.1-0.1-0.2-0.3-0.2-0.6
	c0-0.3,0-0.7,0.2-1.3c0.2-0.7,0.3-1.4,0.4-1.9c0.1-0.5,0.2-1,0.3-1.4c0.1-0.4,0.2-0.8,0.3-1.2c0.1-0.4,0.2-0.8,0.3-1.2
	c0.2-0.7,0.2-1.3,0.1-1.9c-0.1-0.6-0.3-1-0.6-1.4c-0.3-0.4-0.6-0.6-1-0.8c-0.4-0.2-0.8-0.2-1.2-0.2c-0.3,0-0.6,0.2-0.9,0.3
	c-0.3,0.2-0.6,0.4-0.8,0.8c-0.3,0.3-0.5,0.7-0.7,1.1c-0.2,0.4-0.4,0.8-0.6,1.3c0.1-0.6,0-1.1-0.1-1.5c-0.1-0.4-0.3-0.8-0.6-1.1
	c-0.3-0.3-0.6-0.5-0.9-0.6c-0.3-0.1-0.7-0.2-1-0.2c-0.3,0-0.6,0.1-0.8,0.3c-0.3,0.2-0.5,0.4-0.8,0.8c-0.3,0.3-0.5,0.7-0.7,1.1
	c-0.2,0.4-0.5,0.8-0.7,1.3c0.1-0.6,0.1-1.2,0-1.7c-0.1-0.5-0.3-1-0.5-1.3c-0.3-0.3-0.6-0.6-0.9-0.7c-0.4-0.1-0.7-0.1-1.1,0.1
	c-0.3,0.2-0.7,0.4-1,0.8c-0.3,0.3-0.6,0.7-0.9,1.2c-0.3,0.5-0.5,1-0.7,1.5c-0.2,0.5-0.4,1-0.6,1.5c0,0-0.1,0.1-0.1,0.2l-1.2,3
	c-0.1,0.3-0.3,0.7-0.5,1.1c-0.2,0.4-0.5,0.8-0.8,1.2c-0.3,0.4-0.6,0.8-0.9,1.1c-0.3,0.3-0.6,0.5-0.9,0.6c-0.1,0.1-0.3,0.1-0.4,0.1
	c-0.2,0-0.3-0.1-0.4-0.2c-0.1-0.1-0.2-0.3-0.2-0.6c0-0.3,0-0.7,0.2-1.3c0.2-0.7,0.3-1.4,0.4-1.9c0.1-0.5,0.2-1,0.3-1.4
	c0.1-0.4,0.2-0.8,0.3-1.2c0.1-0.4,0.2-0.8,0.3-1.2c0.2-0.7,0.2-1.3,0.1-1.9c-0.1-0.6-0.3-1-0.6-1.4c-0.3-0.4-0.6-0.6-1-0.8
	c-0.4-0.2-0.8-0.2-1.2-0.2c-0.3,0-0.6,0.2-0.9,0.3c-0.3,0.2-0.6,0.4-0.8,0.8c-0.3,0.3-0.5,0.7-0.7,1.1c-0.2,0.4-0.4,0.8-0.6,1.3
	c0.1-0.6,0-1.1-0.1-1.5c-0.1-0.4-0.3-0.8-0.6-1.1c-0.3-0.3-0.6-0.5-0.9-0.6c-0.3-0.1-0.7-0.2-1-0.2c-0.3,0-0.6,0.1-0.8,0.3
	c-0.3,0.2-0.5,0.4-0.8,0.8c-0.3,0.3-0.5,0.7-0.7,1.1c-0.2,0.4-0.5,0.8-0.7,1.3c0.1-0.6,0.1-1.2,0-1.7c-0.1-0.5-0.3-1-0.5-1.3
	c-0.3-0.3-0.6-0.6-0.9-0.7c-0.4-0.1-0.7-0.1-1.1,0.1c-0.3,0.2-0.7,0.4-1,0.8c-0.3,0.3-0.6,0.7-0.9,1.2c-0.3,0.5-0.5,1-0.7,1.5
	c-0.2,0.5-0.4,1-0.6,1.5c0,0-0.1,0.1-0.1,0.2l-1.2,3c-0.1,0.3-0.3,0.7-0.5,1c-0.2,0.4-0.5,0.8-0.7,1.1c-0.3,0.4-0.6,0.7-0.8,1
	c-0.3,0.3-0.6,0.5-0.8,0.6c-0.1,0-0.3,0-0.5-0.1c-0.2-0.1-0.3-0.2-0.4-0.4c-0.1-0.2-0.2-0.4-0.3-0.6c0-0.2,0-0.5,0-0.7
	c0.1-0.5,0.2-1,0.4-1.7c0.1-0.6,0.3-1.3,0.5-2c0.2-0.7,0.3-1.4,0.5-2c0.2-0.7,0.3-1.3,0.5-1.8c0.1-0.4,0.1-0.7,0.1-0.9
	c0-0.2-0.1-0.4-0.2-0.5c-0.1-0.1-0.3-0.2-0.5-0.3c-0.2,0-0.4-0.1-0.7-0.1c-0.5-0.1-0.9,0-1.1,0.1c-0.3,0.1-0.5,0.4-0.6,0.9l-1,3.5
	l-1.1,2.9c-0.1,0.3-0.3,0.7-0.5,1c-0.2,0.4-0.5,0.8-0.7,1.1c-0.3,0.4-0.5,0.7-0.8,1c-0.3,0.3-0.6,0.5-0.8,0.6c-0.2,0-0.3,0-0.4-0.1
	c-0.1-0.1-0.3-0.2-0.4-0.4c-0.1-0.2-0.2-0.4-0.3-0.6C39,90,39,89.7,39,89.5c0.1-0.5,0.2-1,0.4-1.7c0.1-0.6,0.3-1.3,0.5-2
	c0.2-0.7,0.3-1.4,0.5-2c0.2-0.7,0.3-1.3,0.4-1.8c0.1-0.4,0.1-0.7,0.1-0.9c0-0.2-0.1-0.4-0.2-0.5c-0.1-0.1-0.3-0.2-0.5-0.3
	c-0.2,0-0.4-0.1-0.7-0.1c-0.5-0.1-0.8,0-1.1,0.1c-0.3,0.1-0.5,0.4-0.6,0.9c-0.3,1.1-0.6,2.2-0.9,3.2c-0.3,1-0.5,1.9-0.7,2.8
	c-0.2,0.9-0.3,1.8-0.4,2.6c-0.1,0.8-0.1,1.7,0,2.6c0,0.2,0.1,0.5,0.2,0.9c0.1,0.4,0.3,0.7,0.4,1.1c0.2,0.4,0.4,0.7,0.7,0.9
	c0.3,0.3,0.6,0.4,0.9,0.4c0.3,0,0.6,0,1-0.1c0.4-0.1,0.7-0.3,1.1-0.7c0.4-0.3,0.9-0.8,1.4-1.5c0.5-0.6,1-1.4,1.6-2.4
	c0,0.4,0,0.9,0.1,1.3c0,0.2,0.1,0.5,0.2,0.9c0.1,0.4,0.3,0.7,0.4,1.1c0.2,0.4,0.4,0.7,0.7,0.9c0.3,0.3,0.6,0.4,0.9,0.4
	c0.4,0,0.7,0,1.1-0.2c0.4-0.1,0.8-0.4,1.3-0.9c0.5-0.4,1-1.1,1.6-1.9c0.6-0.8,1.2-1.8,1.9-3.1c0.3-0.6,0.6-1.3,0.8-1.9
	c0.2-0.5,0.3-0.9,0.5-1.3c0.1-0.1,0.2-0.3,0.3-0.5l0.4-1.1c0.1-0.2,0.2-0.2,0.2-0.2c0.1,0.1,0.1,0.4,0,0.9c-0.1,0.4-0.2,0.8-0.3,1.1
	c-0.1,0.4-0.2,0.7-0.2,1l-1.6,6.3c-0.1,0.4-0.2,0.7-0.1,0.9c0,0.2,0.1,0.4,0.2,0.5c0.1,0.1,0.3,0.2,0.5,0.3c0.2,0.1,0.5,0.1,0.8,0.1
	c0.4,0,0.8,0,1-0.1c0.3-0.1,0.4-0.4,0.6-0.9c0.3-1.2,0.6-2.4,0.9-3.4c0.3-1,0.6-2,0.8-3l0.1-0.3c0.6-1.6,1.1-2.8,1.6-3.6
	c0.5-0.8,0.9-1.3,1.2-1.4c0.3-0.1,0.5,0.1,0.5,0.6c0.1,0.5-0.1,1.3-0.4,2.3c-0.1,0.2-0.1,0.4-0.2,0.6c-0.1,0.2-0.2,0.6-0.3,1.1
	c-0.1,0.5-0.3,1.3-0.6,2.2c-0.3,1-0.6,2.3-1,4.1C57,94.3,57,94.6,57,94.8c0,0.2,0.1,0.4,0.2,0.5c0.1,0.1,0.3,0.2,0.5,0.3
	c0.2,0.1,0.5,0.1,0.8,0.1c0.5,0,0.8,0,1.1-0.1c0.3-0.1,0.4-0.4,0.6-0.9c0.4-1.3,0.7-2.5,1-3.6C61.5,90,61.7,89,62,88v-0.1
	c0.5-1.3,1.1-2.3,1.5-3.1c0.5-0.8,0.9-1.3,1.2-1.6c0.3-0.3,0.6-0.4,0.7-0.3c0.1,0.1,0.1,0.4,0,0.8l-1.2,5c-0.1,0.4-0.2,0.8-0.3,1.2
	c-0.1,0.4-0.2,0.7-0.2,1c0,0.3-0.1,0.7,0,1c0,0.3,0.1,0.7,0.1,1.1c0.1,0.3,0.2,0.7,0.3,1c0.1,0.3,0.3,0.6,0.5,0.9
	c0.2,0.3,0.4,0.5,0.7,0.6c0.3,0.1,0.6,0.2,0.9,0.2c0.3,0,0.7-0.1,1.1-0.3c0.4-0.1,0.8-0.4,1.3-0.9c0.5-0.4,1-1,1.6-1.8
	c0.6-0.8,1.2-1.8,1.9-3.1c0.3-0.6,0.6-1.3,0.8-1.9c0.2-0.5,0.3-0.9,0.5-1.3c0.1-0.1,0.2-0.3,0.3-0.5l0.4-1.1
	c0.1-0.2,0.2-0.2,0.2-0.2c0.1,0.1,0.1,0.4,0,0.9c-0.1,0.4-0.2,0.8-0.3,1.1c-0.1,0.4-0.2,0.7-0.2,1l-1.6,6.3
	c-0.1,0.4-0.2,0.7-0.1,0.9c0,0.2,0.1,0.4,0.2,0.5c0.1,0.1,0.3,0.2,0.5,0.3c0.2,0.1,0.5,0.1,0.8,0.1c0.4,0,0.8,0,1-0.1
	c0.3-0.1,0.4-0.4,0.6-0.9c0.3-1.2,0.6-2.4,0.9-3.4c0.3-1,0.6-2,0.8-3l0.1-0.3c0.6-1.6,1.1-2.8,1.6-3.6c0.5-0.8,0.9-1.3,1.2-1.4
	c0.3-0.1,0.5,0.1,0.5,0.6c0.1,0.5-0.1,1.3-0.4,2.3c-0.1,0.2-0.1,0.4-0.2,0.6c-0.1,0.2-0.2,0.6-0.3,1.1c-0.1,0.5-0.3,1.3-0.6,2.2
	c-0.3,1-0.6,2.3-1,4.1c-0.1,0.4-0.1,0.7-0.1,0.9c0,0.2,0.1,0.4,0.2,0.5c0.1,0.1,0.3,0.2,0.5,0.3c0.2,0.1,0.5,0.1,0.8,0.1
	c0.5,0,0.8,0,1.1-0.1c0.3-0.1,0.4-0.4,0.6-0.9c0.4-1.3,0.7-2.5,1-3.6c0.3-1.1,0.6-2.1,0.8-3.1v-0.1c0.5-1.3,1.1-2.3,1.5-3.1
	c0.5-0.8,0.9-1.3,1.2-1.6c0.3-0.3,0.6-0.4,0.7-0.3c0.1,0.1,0.1,0.4,0,0.8l-1.2,5c-0.1,0.4-0.2,0.8-0.3,1.2c-0.1,0.4-0.2,0.7-0.2,1
	c0,0.3-0.1,0.7,0,1c0,0.3,0.1,0.7,0.1,1.1c0.1,0.3,0.2,0.7,0.3,1c0.1,0.3,0.3,0.6,0.5,0.9c0.2,0.3,0.4,0.5,0.7,0.6
	c0.3,0.1,0.6,0.2,0.9,0.2c0.3,0,0.7-0.1,1.1-0.3c0.4-0.1,0.8-0.4,1.3-0.9c0.5-0.4,1-1,1.6-1.8c0.5-0.6,0.9-1.4,1.4-2.3
	c0.2,0.9,0.5,1.7,0.8,2.4c0.4,0.7,0.8,1.2,1.3,1.6c0.5,0.4,1.1,0.7,1.7,1c0.6,0.2,1.2,0.3,1.8,0.3c1.1,0,2-0.3,2.9-0.9
	c0.9-0.6,1.6-1.4,2.3-2.3c0.7-0.9,1.3-2,1.9-3.2c0.5-1.1,1-2.1,1.4-3.2c0.1-0.1,0.1-0.2,0.2-0.4l0.4-1c0.1-0.2,0.2-0.5,0.3-0.7
	c0.1-0.2,0.2-0.3,0.4-0.3c0.2,0.4,0.4,0.8,0.5,1.2c0.1,0.4,0.2,0.9,0.1,1.4c0,0.5-0.1,1.1-0.3,1.7c-0.2,0.6-0.3,1.2-0.5,1.8
	c-0.2,0.6-0.3,1.2-0.3,1.8c-0.1,0.6,0,1.2,0.2,1.9c0.2,0.6,0.5,1,0.9,1.4c0.4,0.4,0.8,0.6,1.2,0.6c0.5,0,1-0.1,1.4-0.5
	c0.5-0.3,0.9-0.8,1.3-1.3c0.4-0.5,0.8-1.1,1.2-1.8c0.2-0.3,0.4-0.7,0.5-1c0,0.6,0,1.2,0,1.6c0,0.2,0.1,0.5,0.2,0.8
	c0.1,0.3,0.3,0.6,0.5,0.9c0.2,0.3,0.4,0.6,0.7,0.8c0.3,0.2,0.6,0.4,0.9,0.4c0.3,0,0.7,0,1.1-0.2c0.4-0.1,0.8-0.4,1.3-0.9
	c0.5-0.4,1-1.1,1.6-1.9c0.3-0.4,0.6-0.9,1-1.5c0,0.3,0.1,0.6,0.1,0.9c0.1,0.4,0.2,0.8,0.4,1.2c0.2,0.4,0.4,0.8,0.7,1.1
	c0.3,0.3,0.6,0.6,0.9,0.9c0.4,0.2,0.7,0.4,1.2,0.4c0.4,0,0.8-0.1,1.2-0.3c0.4-0.2,0.7-0.4,1.1-0.8c0.3-0.3,0.7-0.7,1-1.2
	c0.3-0.4,0.6-0.9,0.9-1.4c0,0.1,0,0.2,0,0.3c0,0.2,0.1,0.5,0.2,0.9c0.1,0.4,0.3,0.7,0.5,1.1c0.2,0.4,0.4,0.7,0.7,0.9
	c0.3,0.3,0.5,0.4,0.9,0.4c0.4,0,0.7,0,1.1-0.2c0.4-0.1,0.9-0.4,1.3-0.9c0.5-0.4,1-1.1,1.6-1.9c0.6-0.8,1.2-1.8,1.8-3.1
	c0.3-0.6,0.6-1.3,0.9-1.9c0.2-0.5,0.4-1,0.6-1.5c0.1-0.1,0.1-0.2,0.2-0.4l0.4-1.1c0.1-0.2,0.2-0.2,0.2-0.2c0.1,0.1,0.1,0.4,0,0.9
	c-0.1,0.4-0.2,0.8-0.3,1.1c-0.1,0.4-0.2,0.7-0.2,1l-1.6,6.3c-0.1,0.4-0.2,0.7-0.1,0.9c0,0.2,0.1,0.4,0.2,0.5
	c0.1,0.1,0.3,0.2,0.5,0.3c0.2,0.1,0.5,0.1,0.8,0.1c0.4,0,0.8,0,1-0.1c0.3-0.1,0.4-0.4,0.6-0.9c0.3-1.2,0.7-2.4,1-3.4
	c0.3-1,0.6-2,0.8-3l0.1-0.3c0.5-1.3,1.1-2.4,1.5-3.1c0.5-0.8,0.9-1.3,1.2-1.6c0.3-0.3,0.6-0.4,0.7-0.3c0.1,0.1,0.1,0.4,0,0.8l-1.2,5
	c-0.1,0.4-0.2,0.8-0.3,1.2c-0.1,0.4-0.2,0.7-0.2,1c0,0.3-0.1,0.7-0.1,1c0,0.3,0.1,0.7,0.1,1.1c0.1,0.3,0.2,0.7,0.3,1
	c0.1,0.3,0.3,0.6,0.5,0.9c0.2,0.3,0.4,0.5,0.7,0.6c0.3,0.1,0.6,0.2,0.9,0.2c0.3,0,0.7-0.1,1.1-0.3c0.4-0.1,0.9-0.4,1.3-0.9
	c0.5-0.4,1-1,1.6-1.8c0.4-0.5,0.8-1.2,1.3-2c0,0.5,0.1,0.9,0.2,1.3c0.1,0.4,0.2,0.8,0.4,1.2c0.2,0.4,0.4,0.8,0.7,1.1
	c0.3,0.3,0.6,0.6,0.9,0.9c0.4,0.2,0.7,0.4,1.2,0.4c0.4,0,0.8-0.1,1.2-0.3c0.4-0.2,0.7-0.4,1.1-0.8c0.3-0.3,0.7-0.7,1-1.2
	c0.3-0.4,0.6-0.9,0.9-1.4c0,0.1,0,0.2,0,0.3c0,0.2,0.1,0.5,0.2,0.9c0.1,0.4,0.3,0.7,0.4,1.1c0.2,0.4,0.4,0.7,0.7,0.9
	c0.3,0.3,0.6,0.4,0.9,0.4c0.4,0,0.7,0,1.1-0.2c0.2-0.1,0.4-0.2,0.6-0.3c1-0.5,4.4-2.9,8.7-12.2c0.3-0.6,0.6-1.2,0.8-1.9
	c0.1-0.2,0.2-0.4,0.2-0.6c0,0,0,0,0,0c4.1-11.1,1.1-23.4,0.9-24.6c6,4.4,9,16.7,9,16.7l1.5-1.7l1.8,5c7.7-12.3-4.5-19.2-7.1-20.6
	C189.9,54.3,193.6,57.4,193.6,57.4z M97,85.7c0.2-0.7,0.4-1.3,0.7-1.8c0.3-0.6,0.6-1,0.9-1.5c0.3-0.4,0.7-0.7,1.1-1
	c0.4-0.2,0.7-0.3,1-0.1c0.3,0.2,0.4,0.4,0.5,0.9c0.1,0.6,0.1,1.3-0.1,1.9c-0.2,0.6-0.4,1.2-0.8,1.7c-0.4,0.5-0.9,0.9-1.5,1.3
	c-0.6,0.4-1.3,0.6-2.1,0.7C96.7,87,96.8,86.4,97,85.7z M130.1,84.2c0,0.4-0.1,0.8-0.2,1.2c-0.1,0.2-0.1,0.4-0.2,0.7
	c0,0.2-0.1,0.4-0.2,0.6v0c-0.4,1.6-0.9,2.8-1.3,3.6c-0.4,0.8-0.9,1.1-1.4,1.1c0,0,0,0-0.1,0c-0.3,0-0.6-0.1-0.8-0.4
	c-0.3-0.3-0.5-0.7-0.6-1.1c-0.1-0.4-0.1-0.9-0.1-1.5c0-0.6,0.1-1.2,0.3-1.8c0.2-0.6,0.4-1.3,0.6-1.9c0.3-0.6,0.5-1.2,0.9-1.6
	c0.3-0.5,0.7-0.8,1.1-1c0.4-0.2,0.8-0.2,1.3-0.1c0.2,0.1,0.3,0.2,0.4,0.4c0.1,0.2,0.2,0.5,0.2,0.8C130.1,83.4,130.1,83.8,130.1,84.2
	z M160.3,84.2c0,0.4-0.1,0.8-0.2,1.2h0c-0.1,0.2-0.1,0.4-0.2,0.6c0,0.2-0.1,0.4-0.1,0.6v0c-0.4,1.6-0.9,2.8-1.3,3.6
	c-0.5,0.8-0.9,1.1-1.4,1.1c0,0,0,0-0.1,0c-0.3,0-0.6-0.1-0.8-0.4c-0.3-0.3-0.5-0.7-0.6-1.1c-0.1-0.4-0.1-0.9-0.1-1.5
	c0-0.6,0.1-1.2,0.3-1.8c0.1-0.6,0.3-1.3,0.6-1.9c0.3-0.6,0.5-1.2,0.9-1.6c0.3-0.5,0.7-0.8,1.1-1c0.4-0.2,0.8-0.2,1.3-0.1
	c0.2,0.1,0.3,0.2,0.4,0.4c0.1,0.2,0.2,0.5,0.2,0.8C160.3,83.4,160.3,83.8,160.3,84.2z"/>
</svg>
