<?xml version="1.0" encoding="utf-8"?>
<!-- Generator: Adobe Illustrator 19.0.0, SVG Export Plug-In . SVG Version: 6.00 Build 0)  -->
<svg version="1.1" id="Layer_1" xmlns="http://www.w3.org/2000/svg" xmlns:xlink="http://www.w3.org/1999/xlink" x="0px" y="0px"
	 width="21.1px" height="21.1px" viewBox="0 0 21.1 21.1" style="enable-background:new 0 0 21.1 21.1;" xml:space="preserve">
<style type="text/css">
	.st0{clip-path:url(#SVGID_2_);fill:none;stroke:#FFFFFF;stroke-linecap:round;stroke-linejoin:round;}
</style>
<g>
	<defs>
		<rect id="SVGID_1_" y="0" width="21.1" height="21.1"/>
	</defs>
	<clipPath id="SVGID_2_">
		<use xlink:href="#SVGID_1_"  style="overflow:visible;"/>
	</clipPath>
	<path class="st0" d="M9.5,2.6h-7c-0.5,0-1,0.2-1.4,0.6S0.5,4.1,0.5,4.6v14c0,0.5,0.2,1,0.6,1.4s0.9,0.6,1.4,0.6h14
		c0.5,0,1-0.2,1.4-0.6s0.6-0.9,0.6-1.4v-7"/>
	<path class="st0" d="M17,1.1c0.4-0.4,0.9-0.6,1.5-0.6c0.6,0,1.1,0.2,1.5,0.6c0.4,0.4,0.6,0.9,0.6,1.5c0,0.6-0.2,1.1-0.6,1.5
		l-9.5,9.5l-4,1l1-4L17,1.1z"/>
</g>
</svg>
